<?xml version="1.0" standalone="no"?>
<!DOCTYPE svg PUBLIC "-//W3C//DTD SVG 1.1//EN" "http://www.w3.org/Graphics/SVG/1.1/DTD/svg11.dtd" >
<svg xmlns="http://www.w3.org/2000/svg" xmlns:xlink="http://www.w3.org/1999/xlink" version="1.1">
<metadata>
Created by FontForge 20190801 at Sat Jul  3 15:43:49 2021
 By www-data
</metadata>
<defs>
<font id="Aquarius" horiz-adv-x="0" >
  <font-face 
    font-family="Aquarius"
    font-weight="400"
    font-stretch="normal"
    units-per-em="1000"
    panose-1="0 0 0 0 0 0 0 0 0 0"
    ascent="800"
    descent="-200"
    x-height="325"
    cap-height="689"
    bbox="-172 -318.379 1049.2 861"
    underline-thickness="0"
    underline-position="0"
    unicode-range="U+000A-20AC"
  />
<missing-glyph horiz-adv-x="527" 
d="M50 700h427v-700h-427v700zM78 680l185 -309l186 309h-371zM251 350l-180 300v-601zM264 329l-185 -308h370zM276 350l181 -303v605z" />
    <glyph glyph-name=".notdef" horiz-adv-x="527" 
d="M50 700h427v-700h-427v700zM78 680l185 -309l186 309h-371zM251 350l-180 300v-601zM264 329l-185 -308h370zM276 350l181 -303v605z" />
    <glyph glyph-name=".null" 
 />
    <glyph glyph-name=".null" 
 />
    <glyph glyph-name="nonmarkingreturn" horiz-adv-x="333" 
 />
    <glyph glyph-name="LF" unicode="&#xa;" 
 />
    <glyph glyph-name="controlCR" unicode="&#xd;" 
 />
    <glyph glyph-name="space" unicode=" " horiz-adv-x="378" 
 />
    <glyph glyph-name="exclam" unicode="!" horiz-adv-x="207" 
d="M182 53q5 -4 6 -11v-1q0 -15 -31 -23q-16 -4 -32 -4t-31 4q-12 4 -14 4q-25 12 -16 27q5 8 18 14q22 9 50 7q12 0 23 -3q8 -2 16 -6q7 -3 11 -8zM146 110q-6 -11 -26 -10t-27 10q-8 9 -14 19.5t-10.5 26t-6.5 22.5t-6 28t-5 23q-12 55 -19 124q-12 115 1 254
q2 20 34.5 27t64 -1t29.5 -26q-10 -105 -12 -254q0 -52 2 -130q0 -8 1.5 -27.5t2 -30.5t-1.5 -27t-7 -28z" />
    <glyph glyph-name="quotedbl" unicode="&#x22;" horiz-adv-x="259" 
d="M50 640q-2 16 35 20q41 3 50 -14q2 -3 2 -6q-3 -39 -40.5 -67t-76.5 -23q-4 0 -9 3t0 6q27 16 33 29q10 22 6 52zM160 640q-2 12 20.5 17.5t45 0.5t21.5 -18q-3 -39 -40.5 -67t-76.5 -23q-4 0 -8.5 3t-0.5 6q27 16 33 29q10 22 6 52z" />
    <glyph glyph-name="quotedbl" unicode="&#x201d;" horiz-adv-x="259" 
d="M50 640q-2 16 35 20q41 3 50 -14q2 -3 2 -6q-3 -39 -40.5 -67t-76.5 -23q-4 0 -9 3t0 6q27 16 33 29q10 22 6 52zM160 640q-2 12 20.5 17.5t45 0.5t21.5 -18q-3 -39 -40.5 -67t-76.5 -23q-4 0 -8.5 3t-0.5 6q27 16 33 29q10 22 6 52z" />
    <glyph glyph-name="quotedbl" unicode="&#x201c;" horiz-adv-x="259" 
d="M50 640q-2 16 35 20q41 3 50 -14q2 -3 2 -6q-3 -39 -40.5 -67t-76.5 -23q-4 0 -9 3t0 6q27 16 33 29q10 22 6 52zM160 640q-2 12 20.5 17.5t45 0.5t21.5 -18q-3 -39 -40.5 -67t-76.5 -23q-4 0 -8.5 3t-0.5 6q27 16 33 29q10 22 6 52z" />
    <glyph glyph-name="numbersign" unicode="#" horiz-adv-x="557" 
d="M517 238q11 -2 19 -9t4 -16q-6 -15 -49 -17h-12q1 -63 0 -124q0 -9 -10 -15.5t-22 -8.5q-33 -6 -64 0q-11 2 -21.5 8.5t-10.5 15.5q1 64 -1 130q-44 0 -89 -2q-25 -1 -54 -4q1 -63 0 -124q0 -9 -10.5 -15.5t-21.5 -8.5q-33 -6 -65 0q-11 2 -21.5 8.5t-9.5 15.5v110
q-20 0 -36 4q-17 5 -13 14q8 16 48 24q-1 33 -2 60q-1 20 -2 39q-21 0 -38 2q-6 1 -11 3t-8.5 5t-2.5 7t8 8q19 11 50 15q-1 25 -1.5 30t-2 23t-1.5 26.5t1.5 22t5.5 23.5q8 20 49.5 19t52.5 -19q6 -10 10 -25t5 -23t3 -29.5t2 -24.5q0 -1 1 -12q28 2 53 4q45 2 93 2v5.5
v7.5q-1 5 -2.5 23t-1.5 26.5t1.5 22t5.5 23.5q8 20 49.5 19t52.5 -19q3 -6 6 -12.5t5 -14t3.5 -14.5t2 -15.5t1 -15t1.5 -15.5t1 -15q1 -2 1 -5.5v-4.5q15 -1 27 -2q8 0 17.5 -3t16.5 -10t3 -16q-8 -19 -60 -17q2 -24 3 -44q1 -13 2 -39q21 -3 39 -7zM254 243q66 5 95 6
q-1 26 -1 35q-2 41 -2 49q-50 1 -96 0q-22 -1 -49 -2q2 -25 3 -47q1 -18 2 -45q26 3 48 4z" />
    <glyph glyph-name="dollar" unicode="$" horiz-adv-x="380" 
d="M338 504q38 -40 27 -95t-73 -74q-8 -4 -34.5 -1t-25.5 16q1 10 7.5 28.5t7.5 26.5q6 36 -12 65q-6 10 -24 23q-3 2 -6 3q-20 -6 -39 -39q-11 -19 -14.5 -38.5t0.5 -38t10 -34.5t19 -34.5t23.5 -31.5t26 -31.5t23.5 -28.5q50 -66 47 -121q-2 -37 -24.5 -62.5t-58.5 -34.5
q-8 -2 -18 -4q13 -16 22 -55q3 -9 -17 -18q-14 -7 -42 -8q-52 -1 -59 26q-10 34 18 57q-44 10 -70 37q-28 29 -26 68t37 61q15 9 40 9.5t37 -14.5q3 -6 5.5 -15t3.5 -16t2 -17t2 -16q4 -19 11 -30q7 12 8 27q3 29 -10 58q-12 27 -35.5 56.5t-48.5 59t-38 55.5
q-27 53 -12.5 111.5t65.5 89.5q11 7 26 12l-1.5 1.5l-0.5 0.5q-12 14 -10 31q0 3 3 12q3 10 12 19q14 13 51 11q31 -2 42 -16q13 -16 5 -42q76 -5 118 -49zM204 496z" />
    <glyph glyph-name="percent" unicode="%" horiz-adv-x="557" 
d="M429 429q-21 -43 -75 -149q-13 -26 -39.5 -78t-39.5 -77q-12 -23 -35 -69q-2 -5 -7.5 -16l-8.5 -17t-8.5 -14.5t-11 -15t-13.5 -11.5q-10 -9 -34 -12.5t-45.5 2.5t-25.5 22q-1 9 1.5 20t7 19t11.5 20.5t10 17.5q12 25 38 74q12 25 37.5 75t38.5 75q54 105 80 155
q18 34 28 51.5t29 43.5t39 44q9 10 41.5 9t33.5 -18q0 -15 -2.5 -30.5t-9 -33t-11.5 -28t-15.5 -31.5t-13.5 -28zM492 205q33 -17 52 -54.5t1 -69.5q-11 -20 -33 -33t-47 -18.5t-50 -5t-46 5.5q-14 4 -24 12t-5 19q10 21 60 20h7q1 1 2 1q3 5 11.5 13t12.5 14q22 37 6 64
q-11 17 -24 12t-22 -23q-8 -15 -6 -36t15 -33q6 -8 -8 -9t-19 2q-30 17 -35.5 50t19.5 58q24 22 64 24t69 -13zM217 401q-15 -26 -48 -41t-66 -15.5t-63 5.5q-14 4 -24 11.5t-4 19.5q10 21 60 20h7q1 0 1 1q3 4 12 12.5t12 13.5q23 38 7 65q-12 16 -25 11.5t-21 -22.5
q-9 -15 -6.5 -36t14.5 -34q7 -7 -8 -9q-13 -1 -18 2q-30 18 -36 50.5t20 57.5q24 22 64 24.5t68 -13.5q34 -16 52.5 -53.5t1.5 -69.5z" />
    <glyph glyph-name="ampersand" unicode="&#x26;" horiz-adv-x="426" 
d="M383 250q12 0 28 -5.5t9 -15.5q-32 -48 -159 -28q-42 7 -78 22q-10 -14 -18 -27q-25 -45 -11 -84q5 -16 18 -30q2 -2 5.5 -4.5t8 -5t6.5 -4.5q2 2 10 9.5t12 12.5q20 30 15 68q-2 18 29 26t64 1t36 -27q4 -37 -10 -67.5t-40.5 -48t-60 -27t-68.5 -8t-64 12.5
q-33 12 -57 35t-33 54q-18 65 37 133q13 16 38 37q-36 37 -52.5 86t-3.5 98.5t60 78.5q31 19 74 24t82.5 -4.5t67 -39t26.5 -73.5q0 -11 -2.5 -22.5t-4.5 -20.5t-8.5 -20t-9.5 -17.5t-12.5 -17.5t-13 -15t-16 -15.5t-15.5 -14t-17 -14.5t-16 -14q18 -13 39 -21q16 -6 32 -8
t40.5 -0.5t32.5 1.5zM186 63zM204 515q-3 2 -5 0h1.5h3.5zM179 347q60 59 51 120q-1 5 -9 22t-14 24l-5 -3q-17 -15 -23 -25q-19 -33 -18 -68.5t18 -69.5z" />
    <glyph glyph-name="quotesingle" unicode="'" horiz-adv-x="148" 
d="M50 636q-2 16 35 20q41 3 50 -14q2 -3 2 -6q-3 -39 -40.5 -67t-76.5 -23q-11 1 -11 6q0 1 2 3q27 16 33 29q10 22 6 52z" />
    <glyph glyph-name="quotesingle" unicode="&#x2019;" horiz-adv-x="148" 
d="M50 636q-2 16 35 20q41 3 50 -14q2 -3 2 -6q-3 -39 -40.5 -67t-76.5 -23q-11 1 -11 6q0 1 2 3q27 16 33 29q10 22 6 52z" />
    <glyph glyph-name="quotesingle" unicode="&#x2018;" horiz-adv-x="148" 
d="M50 636q-2 16 35 20q41 3 50 -14q2 -3 2 -6q-3 -39 -40.5 -67t-76.5 -23q-11 1 -11 6q0 1 2 3q27 16 33 29q10 22 6 52z" />
    <glyph glyph-name="parenleft" unicode="(" horiz-adv-x="236" 
d="M205 29q2 -5 6.5 -13.5t8 -14.5t6 -13.5t2 -15t-4.5 -14.5q-9 -17 -43 -18.5t-48 8.5q-16 8 -27 21t-15 22t-14 33q-14 35 -26 77q-23 83 -25 171q-2 93 22 177q8 26 10.5 34.5t11 32t15.5 35t19.5 26.5t26.5 23q8 5 22.5 8t29 0.5t18.5 -12.5q3 -6 4 -12t1 -10.5
t-1.5 -12t-2.5 -10.5l-4 -12t-4 -11q-15 -47 -22 -84q-18 -84 -17 -167q1 -86 23 -166q10 -41 28 -82z" />
    <glyph glyph-name="parenright" unicode=")" horiz-adv-x="238" 
d="M190 459q24 -90 22 -180q-1 -93 -23 -180q-12 -44 -27.5 -75.5t-43.5 -53.5q-15 -12 -41.5 -14t-44.5 4q-10 3 -18 8t-11.5 13t7.5 17q16 16 28.5 41t18 44t11.5 49q17 78 16 158q0 84 -13 158q-7 46 -17 82q-2 5 -6 19.5t-5.5 20t-3.5 19.5t1 20q3 17 32.5 18t39.5 -9
q21 -18 37.5 -48t23.5 -52t17 -59z" />
    <glyph glyph-name="asterisk" unicode="*" horiz-adv-x="272" 
d="M229 536q18 1 29 -10q8 -7 -4 -13q-1 -1 -2 -1q-14 -6 -53 -23q6 -28 15 -55q3 -11 -14 -14q-27 -3 -40 8q-13 17 -27 31q-26 -12 -47 -23l-1 -1l-0.5 -0.5l-0.5 -0.5q-4 -4 -16 -5.5t-19 2.5q-11 1 -17 5q-10 5 -10.5 12t10.5 12q12 4 27 10q7 15 16 31q-22 12 -47 20
q-26 7 -6 17q15 9 29 6q23 -3 46 -5q29 46 35 57q5 9 27 8.5t23 -11.5q3 -29 7 -58q21 0 40 1zM142 504q0 1 -0.5 2.5l-0.5 1.5h-3q-2 1 -3 1v-1q2 -1 7 -4z" />
    <glyph glyph-name="plus" unicode="+" horiz-adv-x="291" 
d="M252 279q31 -3 31 -17q0 -26 -83 -15q2 -42 3 -68q0 -3 1 -17t1 -19.5t-1.5 -15.5t-5.5 -18q-9 -19 -50.5 -18.5t-51.5 18.5q-5 8 -7.5 18t-3 15t-1 20.5t-0.5 16.5q-1 30 -1 68q-30 -2 -45 -2q-19 -1 -28 10q-8 10 12 16q29 8 61 12q3 73 27 119q5 11 29 11t30 -11
q23 -44 28 -118q26 -1 55 -5z" />
    <glyph glyph-name="comma" unicode="," horiz-adv-x="102" 
d="M8 50q-2 12 20.5 17.5t45 0.5t21.5 -18q-3 -39 -40.5 -67t-76.5 -23q-4 1 -9 3.5t0 5.5q27 16 33 29q10 22 6 52z" />
    <glyph glyph-name="hyphen" unicode="-" horiz-adv-x="265" 
d="M198 235q18 0 37.5 -5.5t19.5 -19.5q0 -10 -12 -16t-23 -7.5t-22 -1.5q-7 0 -40.5 -0.5t-48 -0.5t-39.5 3t-43 8t-18 15t18 15t43 8t39.5 3t48 -0.5t40.5 -0.5z" />
    <glyph glyph-name="period" unicode="." horiz-adv-x="134" 
d="M108 55q16 -7 17 -19q0 -6 -5 -10q-5 -5 -12 -8q-16 -7 -41 -7q-24 0 -42 7q-16 7 -17 18q0 7 5 10q5 6 12 9q17 7 42 7q23 0 41 -7z" />
    <glyph glyph-name="slash" unicode="/" horiz-adv-x="684" 
d="M572 620q7 8 35 7.5t27 -14.5q-1 -12 -6 -26t-8.5 -20.5t-14 -25.5t-11.5 -21q-30 -53 -50 -86q-54 -88 -111 -174q-115 -171 -256 -337q-23 -27 -79 -20q-16 2 -36 12t-8 23q135 162 265 335q66 88 127 178q7 10 35 53.5t48 69.5t43 46z" />
    <glyph glyph-name="zero" unicode="0" horiz-adv-x="418" 
d="M283 30q-39 -19 -84.5 -20t-87 18.5t-64.5 57.5q-21 33 -26 81t2.5 92.5t23.5 83.5q23 53 66 92.5t95 44.5q-12 13 -26 24q-12 8 -8 16.5t13 14t18 8.5q20 6 46 4t43 -15q112 -82 99 -279q-2 -37 -7.5 -66.5t-17 -61t-33 -56t-52.5 -39.5zM197 63q1 -1 2 0h-1.5h-0.5z
M121 268q-3 -75 14 -126q11 -31 27 -51q12 -13 30 -26q4 2 7 5q11 7 21 18q17 22 28 53q13 42 17 131q5 120 -41 188q-54 -24 -76 -64q-24 -44 -27 -128z" />
    <glyph glyph-name="one" unicode="1" horiz-adv-x="238" 
d="M203 393q-5 -66 -7 -132q-1 -70 1 -139q1 -30 2 -59q0 -3 1 -11t1.5 -13t-0.5 -11q-2 -8 -18 -23q-15 -13 -45 -12.5t-45 12.5q-4 3 -7 5.5t-5 5.5t-3.5 5.5t-2.5 6t-2 5.5t-1.5 6.5t-0.5 7v8t-1 8.5q-1 35 -2 71q-2 66 0 133q2 74 7 138q0 5 1 20q0 -1 -1 -1.5t-2 -0.5
q-8 -4 -13 -6q-26 -7 -42 2q-6 5 -4 11q3 7 8.5 13.5t15.5 16t12 11.5q36 36 42 41q3 3 9 5q4 6 8 10q13 13 45 11.5t43 -16.5q9 -12 12 -30t2 -31.5t-4 -36.5t-4 -31z" />
    <glyph glyph-name="two" unicode="2" horiz-adv-x="373" 
d="M319 288q-29 -65 -70 -125q-39 -59 -92 -114q54 3 122 6q8 0 20 -1.5t23.5 -7.5t11.5 -16q0 -22 -55 -24q-101 -4 -145 -4q-3 0 -25.5 -1t-34 -1t-27.5 4.5t-23 13.5q-6 4 -11 10q-8 8 6 22q69 68 121 151q65 103 80 169q12 54 -7 90q-10 21 -24 33q-1 1 -7 5l-8 7
q-14 1 -27 -15.5t-18 -33.5t-3 -40v-18.5t2 -16.5q3 -12 -15 -14q-24 -3 -34 4q-2 2 -8.5 6.5t-8.5 6.5t-7 6t-7 7t-5 8t-4 11q-8 30 2 57t34.5 46t55.5 27q32 10 68 6t66.5 -16t53.5 -38.5t31 -61.5q12 -55 -31 -148z" />
    <glyph glyph-name="three" unicode="3" horiz-adv-x="400" 
d="M249 -7q-39 -8 -78 -8t-77.5 17t-60.5 48q-32 43 -12 90q10 24 31 40q11 8 20 11q15 8 40 3q21 -4 16 -17q-24 -65 17 -110q18 -20 40 -26l1 1q2 1 9.5 4.5t11.5 6.5q28 20 38 59.5t-4 76.5t-49 51q-19 -1 -36 2q-5 1 -9 2t-11.5 3t-12 4.5t-9.5 6.5t-5 8.5t2 10.5
q11 24 64 21q2 2 4 3q1 1 3.5 3t3.5 3q8 7 16 20q20 29 25 59q11 57 -20 99q-4 5 -11.5 11t-10.5 9h-0.5h-1.5q-2 -2 -9 -6t-9 -5q-9 -9 -15 -21q-21 -45 19 -83q12 -11 -14 -14q-13 -2 -20 0q-47 9 -67 52t9 82q21 28 58.5 39.5t75.5 7t69 -19.5q51 -26 69 -79t-2 -106
q-18 -48 -57 -78q41 -22 65.5 -56.5t22.5 -78.5q-1 -54 -38 -93.5t-91 -52.5z" />
    <glyph glyph-name="four" unicode="4" horiz-adv-x="427" 
d="M390 200q-3 0 -8.5 -0.5t-7.5 -1.5q0 -39 1 -76q1 -30 3 -59q0 -3 1 -11t1.5 -13t-0.5 -11q-2 -8 -19 -23q-15 -13 -44.5 -12.5t-45.5 12.5q-4 3 -7 6.5t-5.5 6t-4 6.5t-2 6t-1.5 7.5t-1 7t-0.5 9t-0.5 9.5q-2 35 -3 71v54q-70 -5 -182 -12q-14 0 -42 9t-15 25
q51 62 68.5 138t-6.5 154q-5 15 6 22q18 10 42 14.5t47 -3t32 -27.5q19 -44 14 -113q-6 -93 -61 -168q50 -1 97 -2v42q2 74 8 138q0 4 1 21t2 23t3 20t5.5 22t9 18t13.5 18q13 13 45 11.5t43 -16.5q8 -12 11 -30t2 -31.5t-4 -36.5t-3 -31q-5 -66 -7 -132v-41q1 0 2.5 -0.5
t3 -0.5h3.5q17 -1 20 -10q2 -5 -8 -8q-3 -1 -6 -1z" />
    <glyph glyph-name="five" unicode="5" horiz-adv-x="398" 
d="M301 557q11 0 26 0.5t31 -5t20 -15.5q5 -11 -4 -18.5t-18.5 -10.5t-20.5 -5q-79 -12 -158 -4h-5q15 -51 1 -154q27 2 54.5 -2.5t52 -16t41.5 -28.5q42 -43 47 -108.5t-30 -114.5q-39 -55 -114.5 -70t-135.5 15q-25 12 -42.5 33.5t-23 45.5t3.5 49.5t32 44.5q16 12 43 14
t45 -4q10 -3 18.5 -8t11.5 -13t-7 -18q-23 -22 -20 -52.5t28 -49.5q1 -1 4 -2q4 2 13 9q26 21 39 58q11 32 8 71.5t-20 68.5q-14 25 -33 31t-49 5q-30 -9 -64.5 -1t-31.5 26q6 55 10 102q1 7 1.5 23t1.5 25t3.5 21.5t6.5 23.5q-11 5 -20 11q-5 3 -6 9l1 4q1 8 14 10
q29 3 40.5 3t41 -4.5t41.5 -5.5q56 -5 123 7zM171 57q1 -2 7 1q-4 0 -7 -1z" />
    <glyph glyph-name="six" unicode="6" horiz-adv-x="441" 
d="M220 5q-65 6 -111 44t-67 92t-21 120q0 50 9.5 97t30 91t58 74.5t88.5 39.5q31 3 62.5 1.5t62.5 -15.5t49 -39q24 -32 12 -71q-5 -19 -18 -30.5t-35 -23.5q-13 -7 -50 -1q-25 4 -24 14q1 2 3 5q18 26 11 56t-30 49l-2 2q1 1 1 2l-2 -1q-5 3 -6 2q-2 -2 3 -4l-13 -6
q-27 -17 -48 -55q-49 -89 -34 -214q18 13 38 20q35 13 72.5 14.5t74 -11.5t60.5 -40q27 -30 28.5 -70.5t-21.5 -73.5q-28 -40 -77.5 -56.5t-103.5 -11.5zM224 167q-15 -27 -19 -67q0 -5 -3 -9q17 -20 37 -29l3 -1q1 0 3 1q10 3 23 15q23 24 26 56q4 32 -16 59q-2 2 -7.5 7
t-7.5 7q-3 -3 -13 -10.5t-15.5 -13.5t-10.5 -15z" />
    <glyph glyph-name="seven" unicode="7" horiz-adv-x="484" 
d="M372 435q-39 -62 -63 -130q-5 -15 -10 -31q48 -5 44 -28q-4 -21 -56 -21q-21 -97 -13 -208q2 -25 -49.5 -28.5t-72.5 14.5q-8 6 -6 14q-12 106 14 218q-38 4 -52 16q-7 7 4 13q18 10 58 11q6 21 13 40q25 73 64 135q13 21 23 35q-125 -9 -208 27q-27 12 2 24q15 7 26 7
q14 -1 41 -1.5t42 -1t39 0t42 1.5t39.5 4t41.5 7l12 2q8 4 16 7q12 7 39 5.5t31 -18.5q5 -20 -21 -54q-19 -26 -40 -60z" />
    <glyph glyph-name="eight" unicode="8" horiz-adv-x="424" 
d="M326 10q-73 -52 -172 -41q-42 5 -78 23.5t-50 50.5q-27 61 38 155q31 45 83 83q-47 17 -72.5 58.5t-20 91t42.5 86.5q35 34 89.5 43.5t107.5 -7.5t82 -56q24 -31 24.5 -71.5t-21.5 -72.5q-21 -31 -67 -63q4 -2 8 -5q44 -30 61.5 -83.5t3 -107t-58.5 -84.5zM152 474
q-20 -35 -17 -74q1 -15 5 -27t13.5 -25.5t13 -18.5t17.5 -21q27 17 42.5 29t30 34.5t16.5 47.5q1 32 -16 67t-48 34q-10 0 -22 -8.5t-20 -18t-15 -19.5zM158 129q-24 -55 0 -85q3 -5 24 -19q1 0 2 -1q33 8 61 40.5t32 66.5q7 60 -39 107q-54 -46 -80 -109z" />
    <glyph glyph-name="nine" unicode="9" horiz-adv-x="466" 
d="M117 53q28 -6 53.5 2.5t44.5 25.5t35.5 42t27 49t18.5 50q10 33 15 66q-43 -23 -94.5 -27.5t-98.5 11.5q-40 12 -68.5 40t-34.5 66q-8 40 15 79.5t59 64.5q50 35 112 40t119 -20t91 -75q19 -30 28 -67t7 -73.5t-12 -74t-25.5 -71.5t-35.5 -63q-52 -75 -138 -101
q-35 -13 -85.5 -11t-80.5 26q-17 14 19 20zM241 344q23 22 40 58q3 6 7.5 17.5t7.5 17.5q-18 38 -54 59q-12 8 -18 9h-1h-2q-27 -6 -54 -42q-22 -30 -24.5 -62.5t20.5 -61.5q3 -4 19 -17q1 0 5 -2q6 -3 5 -4q20 1 49 28z" />
    <glyph glyph-name="colon" unicode=":" horiz-adv-x="142" 
d="M112 169q16 -7 17 -18q0 -7 -5 -10q-5 -6 -12 -9q-16 -7 -41 -7q-24 0 -42 7q-16 7 -17 19q0 6 5 10q5 5 12 8q17 7 42 7q23 0 41 -7zM29 301q-16 7 -17 18q0 6 5 10q5 6 12 8q17 8 42 8q23 0 41 -8q16 -6 17 -18q0 -6 -5 -10q-5 -6 -12 -8q-16 -8 -41 -8q-24 0 -42 8z
" />
    <glyph glyph-name="semicolon" unicode=";" horiz-adv-x="164" 
d="M52 150q-2 13 20.5 18t45 0t21.5 -18q-3 -39 -40.5 -67t-76.5 -23q-4 1 -9 4t0 5q27 17 33 30q10 21 6 51zM133 337q16 -6 18 -18q-1 -6 -5 -10q-5 -6 -13 -8q-16 -8 -41 -8q-23 0 -41 8q-16 7 -17 18q0 6 5 10q4 6 12 8q16 8 41 8q24 0 41 -8z" />
    <glyph glyph-name="less" unicode="&#x3c;" horiz-adv-x="280" 
d="M218 365q16 4 39 -3q15 -7 6 -16q-24 -21 -74 -53t-60 -40q-1 0 -1.5 -0.5t-1.5 -0.5q17 -7 34.5 -16t42.5 -23t32 -18q20 -12 17.5 -23.5t-23.5 -19.5q-22 -8 -49 -6t-47 14q-66 39 -70 42q-2 1 -8 4.5t-8.5 5.5t-8 5.5t-8.5 6.5t-7 6.5t-6.5 7.5t-3.5 8q-5 14 13 19
q0 7 8 12q106 67 184 88z" />
    <glyph glyph-name="equal" unicode="=" horiz-adv-x="316" 
d="M244 358q10 0 22 -1.5t25 -8t13 -16.5q0 -15 -20 -21t-40 -6q-91 0 -117 1h-13h-13.5t-13 0.5t-14 1t-12.5 1.5t-13.5 2t-12.5 3t-13 4q-10 4 -10 11t9.5 11t19.5 6.5t23 4t19.5 2t23.5 1t20 1.5q26 1 117 3zM242 258q16 0 36 -5.5t20 -19.5q0 -23 -56 -25
q-16 0 -47.5 -2t-52 -3t-47.5 -0.5t-50 3.5q-25 4 -29 18q-4 12 16 17q1 1 3 1q30 7 62 10t82 4t63 2z" />
    <glyph glyph-name="greater" unicode="&#x3e;" horiz-adv-x="274" 
d="M248 258q17 -6 13 -20q-2 -4 -4 -7.5t-6 -7.5l-7 -7t-8 -6.5t-7.5 -5t-8.5 -5.5t-8 -5q-4 -2 -68 -41q-20 -12 -46.5 -14t-47.5 6t-23.5 19.5t16.5 22.5q7 4 31.5 18.5t41.5 23t34 15.5l-1 1l-2 1q-10 7 -59 39t-71 53q-16 14 17 19q18 3 26 0q76 -20 180 -88q8 -5 8 -11
z" />
    <glyph glyph-name="question" unicode="?" horiz-adv-x="431" 
d="M199 60q33 -5 44 -20q12 -16 -17 -29q-22 -10 -49 -9t-44 8q-10 4 -16 13q-1 1 -1.5 3.5t-1.5 3.5q1 7 6 11q4 5 12 8q3 2 7 3q27 12 60 8zM125 44l1 1v-0.5t-1 -0.5zM394 570q27 -33 28.5 -74t-16 -75.5t-47.5 -65.5q-10 -11 -37.5 -37t-40 -41t-29 -39t-22 -49.5
t-1.5 -54.5q2 -16 -25.5 -23.5t-57.5 -2.5t-35 19q-15 36 -6.5 69.5t27.5 57.5t49 50.5t58 47.5t53.5 48.5t36.5 53.5q12 24 8.5 51t-15 49t-34.5 35.5t-52 10.5q-56 -4 -95 -52t-13 -100q9 -19 -28 -29q-46 -13 -76 4q-11 7 -14 18q-9 34 2 65.5t35.5 54.5t54 40t60.5 25
q42 10 83.5 10t81.5 -17t67 -49z" />
    <glyph glyph-name="at" unicode="@" horiz-adv-x="766" 
d="M530 584q75 -24 131 -77.5t78 -124.5t-2 -151q-14 -44 -42 -74.5t-68.5 -42.5t-86.5 -2q-39 9 -59 33q-14 -7 -28 -12q-20 -7 -44.5 -11t-52 -3.5t-51.5 7t-41.5 23t-22.5 41.5q-7 35 12 69.5t50.5 57t65.5 30.5q26 6 64 1.5t65 -20.5q22 10 56.5 5.5t42.5 -20.5
q7 -6 6 -14t-4 -17q-1 -9 -6.5 -38t-5.5 -45l2 -8q24 37 30.5 86t-4.5 91q-17 77 -83 131.5t-142 47.5q-79 -7 -141 -63.5t-90 -135.5q-27 -75 -11 -155t71 -137q57 -59 128 -71q76 -13 169 35q11 6 35 0q18 -5 8 -15q-63 -56 -153 -67.5t-174.5 20t-140.5 94.5
q-74 87 -73 199t69 202q49 64 125 103.5t156.5 45t161.5 -17.5zM411 193q46 36 62 101q-17 14 -32 21.5t-34.5 8t-38.5 -11.5q-29 -18 -40.5 -52t3.5 -65q7 -14 16 -20.5t20 -4.5t21 7.5t23 15.5z" />
    <glyph glyph-name="A" unicode="A" horiz-adv-x="822" 
d="M337 22q-37 -31 -88.5 -41t-98.5 1q-47 10 -81.5 38.5t-51.5 66t-16 82.5t22 87q28 57 84 92.5t118 47t126 5.5q22 -2 45 -8q15 60 27 129q2 12 7.5 44t8.5 48.5t9 42t14 45.5q-26 2 -59 -30q-2 -2 -9.5 -2.5t-14 0.5t-4.5 5q6 21 24 33t41 14.5t45 0.5t40 -9
q102 -36 132 -188q15 -77 28 -232q47 -9 88 -5q46 5 54 -13q5 -11 -6 -16.5t-24 -7.5q-55 -6 -108 -1l3 -30q0 -1 2.5 -24.5t3 -29t3.5 -27.5t6 -30.5t8 -26.5t11.5 -27t15 -21t20 -19.5t24.5 -12.5q14 -5 15 -15t-11 -17q-27 -17 -72 -7q-105 25 -136 134q-16 57 -26 187
q-19 8 -53.5 24.5t-48.5 22.5q-14 -94 -29 -150q-30 -110 -88 -160zM470 435q-4 -22 -9 -61q22 -8 91 -36v2v3q-4 34 -6 80t-4.5 89.5t-7.5 78.5q-7 55 -34 87q0 -29 -10 -112q-6 -45 -20 -131zM115 94q9 -17 23 -33t34 -27t38 -8q62 8 109 115q24 54 61 189q4 12 7 27
q-39 11 -80 9.5t-77 -13.5t-67 -38.5t-49 -64.5q-18 -36 -17.5 -78.5t18.5 -77.5z" />
    <glyph glyph-name="A" unicode="&#xc5;" horiz-adv-x="822" 
d="M337 22q-37 -31 -88.5 -41t-98.5 1q-47 10 -81.5 38.5t-51.5 66t-16 82.5t22 87q28 57 84 92.5t118 47t126 5.5q22 -2 45 -8q15 60 27 129q2 12 7.5 44t8.5 48.5t9 42t14 45.5q-26 2 -59 -30q-2 -2 -9.5 -2.5t-14 0.5t-4.5 5q6 21 24 33t41 14.5t45 0.5t40 -9
q102 -36 132 -188q15 -77 28 -232q47 -9 88 -5q46 5 54 -13q5 -11 -6 -16.5t-24 -7.5q-55 -6 -108 -1l3 -30q0 -1 2.5 -24.5t3 -29t3.5 -27.5t6 -30.5t8 -26.5t11.5 -27t15 -21t20 -19.5t24.5 -12.5q14 -5 15 -15t-11 -17q-27 -17 -72 -7q-105 25 -136 134q-16 57 -26 187
q-19 8 -53.5 24.5t-48.5 22.5q-14 -94 -29 -150q-30 -110 -88 -160zM470 435q-4 -22 -9 -61q22 -8 91 -36v2v3q-4 34 -6 80t-4.5 89.5t-7.5 78.5q-7 55 -34 87q0 -29 -10 -112q-6 -45 -20 -131zM115 94q9 -17 23 -33t34 -27t38 -8q62 8 109 115q24 54 61 189q4 12 7 27
q-39 11 -80 9.5t-77 -13.5t-67 -38.5t-49 -64.5q-18 -36 -17.5 -78.5t18.5 -77.5z" />
    <glyph glyph-name="A" unicode="&#xc3;" horiz-adv-x="822" 
d="M337 22q-37 -31 -88.5 -41t-98.5 1q-47 10 -81.5 38.5t-51.5 66t-16 82.5t22 87q28 57 84 92.5t118 47t126 5.5q22 -2 45 -8q15 60 27 129q2 12 7.5 44t8.5 48.5t9 42t14 45.5q-26 2 -59 -30q-2 -2 -9.5 -2.5t-14 0.5t-4.5 5q6 21 24 33t41 14.5t45 0.5t40 -9
q102 -36 132 -188q15 -77 28 -232q47 -9 88 -5q46 5 54 -13q5 -11 -6 -16.5t-24 -7.5q-55 -6 -108 -1l3 -30q0 -1 2.5 -24.5t3 -29t3.5 -27.5t6 -30.5t8 -26.5t11.5 -27t15 -21t20 -19.5t24.5 -12.5q14 -5 15 -15t-11 -17q-27 -17 -72 -7q-105 25 -136 134q-16 57 -26 187
q-19 8 -53.5 24.5t-48.5 22.5q-14 -94 -29 -150q-30 -110 -88 -160zM470 435q-4 -22 -9 -61q22 -8 91 -36v2v3q-4 34 -6 80t-4.5 89.5t-7.5 78.5q-7 55 -34 87q0 -29 -10 -112q-6 -45 -20 -131zM115 94q9 -17 23 -33t34 -27t38 -8q62 8 109 115q24 54 61 189q4 12 7 27
q-39 11 -80 9.5t-77 -13.5t-67 -38.5t-49 -64.5q-18 -36 -17.5 -78.5t18.5 -77.5z" />
    <glyph glyph-name="A" unicode="&#xc2;" horiz-adv-x="822" 
d="M337 22q-37 -31 -88.5 -41t-98.5 1q-47 10 -81.5 38.5t-51.5 66t-16 82.5t22 87q28 57 84 92.5t118 47t126 5.5q22 -2 45 -8q15 60 27 129q2 12 7.5 44t8.5 48.5t9 42t14 45.5q-26 2 -59 -30q-2 -2 -9.5 -2.5t-14 0.5t-4.5 5q6 21 24 33t41 14.5t45 0.5t40 -9
q102 -36 132 -188q15 -77 28 -232q47 -9 88 -5q46 5 54 -13q5 -11 -6 -16.5t-24 -7.5q-55 -6 -108 -1l3 -30q0 -1 2.5 -24.5t3 -29t3.5 -27.5t6 -30.5t8 -26.5t11.5 -27t15 -21t20 -19.5t24.5 -12.5q14 -5 15 -15t-11 -17q-27 -17 -72 -7q-105 25 -136 134q-16 57 -26 187
q-19 8 -53.5 24.5t-48.5 22.5q-14 -94 -29 -150q-30 -110 -88 -160zM470 435q-4 -22 -9 -61q22 -8 91 -36v2v3q-4 34 -6 80t-4.5 89.5t-7.5 78.5q-7 55 -34 87q0 -29 -10 -112q-6 -45 -20 -131zM115 94q9 -17 23 -33t34 -27t38 -8q62 8 109 115q24 54 61 189q4 12 7 27
q-39 11 -80 9.5t-77 -13.5t-67 -38.5t-49 -64.5q-18 -36 -17.5 -78.5t18.5 -77.5z" />
    <glyph glyph-name="A" unicode="&#xc1;" horiz-adv-x="822" 
d="M337 22q-37 -31 -88.5 -41t-98.5 1q-47 10 -81.5 38.5t-51.5 66t-16 82.5t22 87q28 57 84 92.5t118 47t126 5.5q22 -2 45 -8q15 60 27 129q2 12 7.5 44t8.5 48.5t9 42t14 45.5q-26 2 -59 -30q-2 -2 -9.5 -2.5t-14 0.5t-4.5 5q6 21 24 33t41 14.5t45 0.5t40 -9
q102 -36 132 -188q15 -77 28 -232q47 -9 88 -5q46 5 54 -13q5 -11 -6 -16.5t-24 -7.5q-55 -6 -108 -1l3 -30q0 -1 2.5 -24.5t3 -29t3.5 -27.5t6 -30.5t8 -26.5t11.5 -27t15 -21t20 -19.5t24.5 -12.5q14 -5 15 -15t-11 -17q-27 -17 -72 -7q-105 25 -136 134q-16 57 -26 187
q-19 8 -53.5 24.5t-48.5 22.5q-14 -94 -29 -150q-30 -110 -88 -160zM470 435q-4 -22 -9 -61q22 -8 91 -36v2v3q-4 34 -6 80t-4.5 89.5t-7.5 78.5q-7 55 -34 87q0 -29 -10 -112q-6 -45 -20 -131zM115 94q9 -17 23 -33t34 -27t38 -8q62 8 109 115q24 54 61 189q4 12 7 27
q-39 11 -80 9.5t-77 -13.5t-67 -38.5t-49 -64.5q-18 -36 -17.5 -78.5t18.5 -77.5z" />
    <glyph glyph-name="B" unicode="B" horiz-adv-x="757" 
d="M384 476q5 12 17 38q46 99 84 141q29 32 74.5 38t88.5 -12t68 -51q27 -38 29.5 -87t-15.5 -93t-50 -78q-45 -48 -115 -71q52 -19 86 -54q51 -52 52.5 -125.5t-50.5 -125.5q-49 -46 -126 -54.5t-134 28.5q-36 24 -53 73q-5 -7 -11 -12q-54 -52 -155 -45q-17 1 -34.5 10
t-10.5 24q12 24 79 20q-14 1 -14 2t4 3q9 4 13 8q12 10 23 29q16 26 25 63q16 62 16 143q0 43 -8 158q0 3 -1.5 23.5t-2 28t-2.5 23t-5 27t-7 22.5q-10 29 -31.5 49t-48.5 22q-30 2 -56 -18t-40 -50q-16 -29 -14 -61t14.5 -59t38 -47t57.5 -25q15 -3 8 -10q-5 -3 -12 -3
q-72 -2 -125.5 51t-38.5 124q13 63 64.5 98t117.5 32q74 -4 125 -47.5t68 -116.5q4 -15 8 -33zM551 29q25 38 26.5 86.5t-16.5 88.5t-57.5 63t-89.5 12h-9q-1 -59 -11 -110q-5 -23 -10 -41q-3 -18 -1 -32q7 -52 42 -83q34 -29 67.5 -25.5t58.5 41.5zM481 568
q-32 -48 -57 -101q-6 -12 -16 -35t-12 -27q4 -30 7 -59q8 -1 15 -2q97 -14 161 69q31 39 44 88.5t2 95.5q-7 26 -24 48t-39 14q-10 -3 -19.5 -10t-19.5 -19.5t-15 -19.5t-15.5 -23.5t-11.5 -18.5z" />
    <glyph glyph-name="C" unicode="C" horiz-adv-x="591" 
d="M539 81q-28 -40 -74 -67t-97 -38q-119 -24 -214 34q-74 45 -111 144q-33 88 -29.5 186t43.5 183q30 62 82.5 109t118 67t136.5 -1q42 -13 70 -46t21 -75q-6 -37 -38.5 -60t-71.5 -21q-13 0 -17 7q-2 4 8 8q22 7 31 30.5t4.5 49t-17.5 40.5q-49 55 -123 -6
q-67 -55 -99 -147t-23.5 -188.5t51.5 -171.5q17 -30 39 -52t48 -35t57 -12t63 17q31 16 59.5 46t45.5 62q20 38 27 76q1 7 2 16t2 15.5t3 15t5 15.5q3 8 21 8t21 -8q15 -35 -6 -110q-17 -60 -38 -91z" />
    <glyph glyph-name="D" unicode="D" horiz-adv-x="827" 
d="M378 507q40 126 142 164q74 28 150 0q79 -29 111 -124q32 -86 31.5 -190.5t-37.5 -189.5q-36 -84 -118 -130.5t-174 -38.5q-81 8 -130 60q-10 -15 -23 -27q-54 -52 -155 -45q-17 1 -34.5 10t-10.5 24q12 24 79 20q-14 1 -14 2t4 3q9 4 13 8q12 10 23 29q16 26 25 63
q16 62 16 143q0 43 -8 158q0 3 -1.5 23.5t-2 28t-2.5 23t-5 27t-7 22.5q-7 18 -18 33t-27.5 25.5t-34.5 12.5q-30 2 -56 -18t-40 -50q-16 -29 -14 -61t14.5 -59t38 -47t57.5 -25q15 -3 8 -10q-5 -3 -12 -3q-72 -2 -125.5 51t-38.5 124q13 63 64.5 98t117.5 32
q74 -4 125 -47.5t68 -116.5q0 -1 1 -1v-1zM603 648q-16 5 -31 4t-30.5 -8.5t-28 -16.5t-23.5 -20q-12 -12 -22 -25t-18.5 -29.5t-13.5 -27.5t-11.5 -33t-9 -30t-9 -34t-8.5 -32q17 -127 -3 -227q-3 -12 -6 -23q17 -47 42 -69q52 -45 104 -23q55 24 90 79.5t49 121.5
q30 139 -6 296q-19 82 -65 97z" />
    <glyph glyph-name="E" unicode="E" horiz-adv-x="435" 
d="M27 375q-15 49 -5.5 98t36 92t64.5 74q37 30 88.5 48t106.5 12t87 -45q20 -25 23.5 -59t-9.5 -63q-27 -63 -113 -91q-13 -4 -29 3q-8 5 -2 11q93 81 67 155q-5 14 -12.5 25t-20 18t-26.5 3q-35 -11 -72 -48q-21 -21 -36.5 -48t-24 -57t-8.5 -60q0 -54 25 -91
q3 -5 12.5 -12.5t12.5 -10.5q33 22 86 8q9 -2 18 -7.5t12.5 -14t-7.5 -16.5q-22 -16 -49 -24q-66 -28 -99 -102.5t-1 -137.5q14 -28 37 -36.5t47 -1.5t48 25q55 40 80 130q3 8 20.5 8.5t18.5 -8.5q4 -33 -9 -65.5t-35.5 -58t-51.5 -42.5q-50 -29 -112.5 -31t-112.5 29
q-31 20 -46.5 54.5t-14.5 70.5t14 72q22 60 78 101q-66 30 -85 93z" />
    <glyph glyph-name="E" unicode="&#xcb;" horiz-adv-x="435" 
d="M27 375q-15 49 -5.5 98t36 92t64.5 74q37 30 88.5 48t106.5 12t87 -45q20 -25 23.5 -59t-9.5 -63q-27 -63 -113 -91q-13 -4 -29 3q-8 5 -2 11q93 81 67 155q-5 14 -12.5 25t-20 18t-26.5 3q-35 -11 -72 -48q-21 -21 -36.5 -48t-24 -57t-8.5 -60q0 -54 25 -91
q3 -5 12.5 -12.5t12.5 -10.5q33 22 86 8q9 -2 18 -7.5t12.5 -14t-7.5 -16.5q-22 -16 -49 -24q-66 -28 -99 -102.5t-1 -137.5q14 -28 37 -36.5t47 -1.5t48 25q55 40 80 130q3 8 20.5 8.5t18.5 -8.5q4 -33 -9 -65.5t-35.5 -58t-51.5 -42.5q-50 -29 -112.5 -31t-112.5 29
q-31 20 -46.5 54.5t-14.5 70.5t14 72q22 60 78 101q-66 30 -85 93z" />
    <glyph glyph-name="E" unicode="&#xca;" horiz-adv-x="435" 
d="M27 375q-15 49 -5.5 98t36 92t64.5 74q37 30 88.5 48t106.5 12t87 -45q20 -25 23.5 -59t-9.5 -63q-27 -63 -113 -91q-13 -4 -29 3q-8 5 -2 11q93 81 67 155q-5 14 -12.5 25t-20 18t-26.5 3q-35 -11 -72 -48q-21 -21 -36.5 -48t-24 -57t-8.5 -60q0 -54 25 -91
q3 -5 12.5 -12.5t12.5 -10.5q33 22 86 8q9 -2 18 -7.5t12.5 -14t-7.5 -16.5q-22 -16 -49 -24q-66 -28 -99 -102.5t-1 -137.5q14 -28 37 -36.5t47 -1.5t48 25q55 40 80 130q3 8 20.5 8.5t18.5 -8.5q4 -33 -9 -65.5t-35.5 -58t-51.5 -42.5q-50 -29 -112.5 -31t-112.5 29
q-31 20 -46.5 54.5t-14.5 70.5t14 72q22 60 78 101q-66 30 -85 93z" />
    <glyph glyph-name="F" unicode="F" horiz-adv-x="574" 
d="M449 359q-113 -57 -258 -29q0 -30 1 -55v-3v-2q62 5 98 -4q19 -4 19 -15.5t-19 -16.5q-29 -6 -96 -6q3 -51 9 -108q1 -13 5.5 -36.5t7 -40t2 -37t-6.5 -35.5q-9 -22 -52.5 -20t-55.5 20q-8 11 -13 27.5t-6.5 28t-3.5 33t-2 29.5q-7 59 -11 111q-1 8 -1 22q-22 0 -39 1
q-23 1 -28 11q-4 7 10 12l3 1q22 8 52 12q-4 87 2 165q4 49 13 89t26.5 81.5t49.5 71t77 43.5q25 8 54.5 11t60 1.5t61.5 -9t58.5 -20t50 -31.5t36.5 -43q28 -51 19 -101.5t-42.5 -92t-80.5 -65.5zM223 581q-20 -47 -28 -151q-2 -23 -3 -54q42 -4 79 -4.5t75 13.5t66 42
q46 46 46.5 111.5t-52.5 104.5q-24 16 -52 23t-56 -1q-46 -17 -75 -84z" />
    <glyph glyph-name="G" unicode="G" horiz-adv-x="539" 
d="M211 666q37 19 84.5 25.5t92.5 -1t82 -35.5t52 -72q14 -46 3.5 -87t-37.5 -73t-66 -52.5t-82 -26.5q-13 -1 -26 6q-10 6 3 12q45 20 78 55t45 80.5t-14 94.5q-15 27 -41 44t-54 13q-49 -7 -97 -66q-79 -97 -94 -288q-6 -79 14 -147t76 -108q26 -19 47.5 -20.5t48.5 15.5
q17 11 28 26q-9 76 5 149q-18 1 -32 2q-2 0 -6.5 0.5t-6.5 1t-6.5 1t-7 1t-6.5 1.5t-6.5 2.5t-5.5 3t-5.5 3.5t-4.5 5q-5 6 6 10q19 9 59 10.5t54 4.5q7 2 19.5 2.5t27 0t24.5 -6.5t9 -16q-10 -117 16 -222q3 -11 -18 -20q-35 -16 -76 -4q-7 2 -11 4q-1 0 -1 -0.5t-1 -0.5
q-50 -26 -108.5 -26t-110.5 23q-47 20 -80.5 58t-48 82.5t-19.5 96t5 98.5q44 262 193 341z" />
    <glyph glyph-name="H" unicode="H" horiz-adv-x="746" 
d="M2 543q13 63 64.5 98t117.5 32q49 -2 89 -23t66.5 -57t37.5 -84q22 -88 27 -170q12 0 32 -2t25 -3q36 -2 95 -6v2v2q10 88 39 182q16 50 35 89q18 35 62 76q5 5 23.5 4.5t19.5 -9.5q2 -46 -10 -85q-11 -40 -23 -87q-20 -84 -26 -175q-6 -85 4 -184q4 -44 12 -88
q2 -6 6 -20t6 -23t0.5 -20t-7.5 -18q-15 -17 -45.5 -17.5t-47.5 11.5q-7 5 -12.5 11.5t-9 12.5t-6 15t-3.5 15t-3 17t-3 16q-9 46 -13 94q-6 64 -2 135q-73 8 -114 14q-4 0 -15.5 1t-16.5 1q1 -71 -11 -131q-20 -95 -65 -138q-54 -52 -155 -45q-17 1 -34.5 10t-10.5 24
q12 24 79 20q-14 1 -14 2t4 3q9 4 13 8q12 10 23 29q16 26 25 63q16 62 16 143q0 43 -8 158q0 3 -1.5 23.5t-2 28t-2.5 23t-5 27t-7 22.5q-10 29 -31.5 49t-48.5 22q-30 2 -56 -18t-40 -50q-16 -29 -14 -61t14.5 -59t38 -47t57.5 -25q15 -3 8 -10q-5 -3 -12 -3
q-72 -2 -125.5 51t-38.5 124z" />
    <glyph glyph-name="I" unicode="I" horiz-adv-x="291" 
d="M50 526q0 -6 -12 -6.5t-15 3.5q-27 31 -26 65t25.5 63t60.5 38q62 14 110.5 -19t61.5 -96q9 -45 9 -152q0 -101 -4 -169q-7 -111 -15 -157q-15 -81 -79 -104q-49 -19 -86 0q-17 8 -16.5 18.5t16.5 19.5q30 16 39 87q6 44 12 117q7 89 14 232q1 9 2.5 27.5t3 33.5t2 34
t-1 34t-7 30t-14.5 25q-10 12 -22 13t-22.5 -6t-19 -17t-13.5 -22q-4 -9 -6 -18t-2 -19t0.5 -17t2 -19.5t2.5 -18.5z" />
    <glyph glyph-name="I" unicode="&#xcf;" horiz-adv-x="291" 
d="M50 526q0 -6 -12 -6.5t-15 3.5q-27 31 -26 65t25.5 63t60.5 38q62 14 110.5 -19t61.5 -96q9 -45 9 -152q0 -101 -4 -169q-7 -111 -15 -157q-15 -81 -79 -104q-49 -19 -86 0q-17 8 -16.5 18.5t16.5 19.5q30 16 39 87q6 44 12 117q7 89 14 232q1 9 2.5 27.5t3 33.5t2 34
t-1 34t-7 30t-14.5 25q-10 12 -22 13t-22.5 -6t-19 -17t-13.5 -22q-4 -9 -6 -18t-2 -19t0.5 -17t2 -19.5t2.5 -18.5z" />
    <glyph glyph-name="I" unicode="&#xce;" horiz-adv-x="291" 
d="M50 526q0 -6 -12 -6.5t-15 3.5q-27 31 -26 65t25.5 63t60.5 38q62 14 110.5 -19t61.5 -96q9 -45 9 -152q0 -101 -4 -169q-7 -111 -15 -157q-15 -81 -79 -104q-49 -19 -86 0q-17 8 -16.5 18.5t16.5 19.5q30 16 39 87q6 44 12 117q7 89 14 232q1 9 2.5 27.5t3 33.5t2 34
t-1 34t-7 30t-14.5 25q-10 12 -22 13t-22.5 -6t-19 -17t-13.5 -22q-4 -9 -6 -18t-2 -19t0.5 -17t2 -19.5t2.5 -18.5z" />
    <glyph glyph-name="I" unicode="&#xcd;" horiz-adv-x="291" 
d="M50 526q0 -6 -12 -6.5t-15 3.5q-27 31 -26 65t25.5 63t60.5 38q62 14 110.5 -19t61.5 -96q9 -45 9 -152q0 -101 -4 -169q-7 -111 -15 -157q-15 -81 -79 -104q-49 -19 -86 0q-17 8 -16.5 18.5t16.5 19.5q30 16 39 87q6 44 12 117q7 89 14 232q1 9 2.5 27.5t3 33.5t2 34
t-1 34t-7 30t-14.5 25q-10 12 -22 13t-22.5 -6t-19 -17t-13.5 -22q-4 -9 -6 -18t-2 -19t0.5 -17t2 -19.5t2.5 -18.5z" />
    <glyph glyph-name="J" unicode="J" horiz-adv-x="522" 
d="M328 651h1q27 4 59 36q18 18 70 11q46 -6 45 -26q0 -6 -7 -13q-12 -12 -28 -23q2 -3 3 -5q55 -201 15 -379q-37 -166 -160 -223q-43 -20 -92.5 -25.5t-99 8t-82.5 46.5q-44 43 -46 105.5t38 108.5q37 42 95.5 60.5t111.5 -0.5q17 -7 -4 -14q-7 -2 -11 -2q-70 2 -107 -44
q-38 -46 -23 -106q6 -28 24 -54t41 -41q22 -12 38 -10.5t38 14.5q101 59 121 241q16 139 -18 282q-61 -3 -117 18q-10 4 -33 18t-42.5 22t-35.5 4q-24 -6 -27 -30t10 -41q7 -10 24 -22.5t23 -20.5q3 -5 -7 -7q-11 -3 -17 -1q-34 8 -58.5 32.5t-25.5 57.5t23 50t60 20
q25 2 56 -4t48.5 -11.5t53.5 -19.5q21 -8 28 -9q7 -3 15 -3z" />
    <glyph glyph-name="K" unicode="K" horiz-adv-x="728" 
d="M510 449q12 22 20 48t16 57.5t13 49.5q12 37 37 58.5t62 24.5q17 1 33 -1.5t30 -12.5t15 -26q0 -8 -14 -7.5t-19 5.5q-7 8 -11 10.5t-9 2t-11 -8.5q-6 -9 -12 -23q-7 -17 -9 -58q-4 -80 -21 -123q-34 -84 -118 -118q42 -25 62 -62q13 -24 21.5 -61t12.5 -66.5t18.5 -61.5
t39.5 -51q8 -5 9 -14q0 -1 -0.5 -2.5t-0.5 -2.5q-6 -28 -69 -23q-31 2 -54 17.5t-37 40.5t-22 51t-13 57q-1 9 -3 28.5t-3.5 31t-5 27.5t-9.5 30q-12 30 -28 43h-1.5t-0.5 1q-13 -1 -24 0q3 -77 -10 -141q-20 -95 -65 -138q-54 -52 -155 -45q-17 1 -34.5 10t-10.5 24
q12 24 79 20q-14 1 -14 2t4 3q9 4 13 8q12 10 23 29q16 26 25 63q16 62 16 143q0 43 -8 158q0 3 -1.5 23.5t-2 28t-2.5 23t-5 27t-7 22.5q-10 29 -31.5 49t-48.5 22q-30 2 -56 -18t-40 -50q-16 -29 -14 -61t14.5 -59t38 -47t57.5 -25q15 -3 8 -10q-5 -3 -12 -3
q-72 -2 -125.5 51t-38.5 124q13 63 64.5 98t117.5 32q30 -1 56.5 -9.5t48.5 -23t39.5 -34t29.5 -44.5t19 -53q18 -74 25 -145q4 0 6 1q61 4 103 84z" />
    <glyph glyph-name="L" unicode="L" horiz-adv-x="598" 
d="M169 688q50 2 96 -22.5t76 -66.5q50 -72 40 -207q-13 -179 -92 -295q25 -10 42 -16q58 -20 89 -9q40 15 63 61q11 22 64 20q51 -1 58 -23q3 -5 0 -12q-19 -44 -60 -70.5t-90.5 -32.5t-98.5 -1t-91 20q-10 4 -22 9q-14 -14 -29 -25q-18 -15 -46.5 -24.5t-58 -12.5t-57 7
t-40.5 33q-18 32 -4 57t40.5 41.5t54.5 20.5q36 5 76 -4q57 96 71 230q11 105 0 169q-17 98 -73 120q-29 11 -51 -5.5t-31.5 -44.5t-7.5 -53q7 -72 91 -129q10 -7 -11 -11q-15 -2 -21 1q-34 18 -59.5 41.5t-41.5 58t-11 71.5q7 50 45 76.5t90 27.5zM112 53q12 10 25 25
q7 8 13 16q-15 7 -22 6q-9 -1 -16.5 -11t-9.5 -20t2 -19q0 -1 1 -3q5 4 7 6z" />
    <glyph glyph-name="M" unicode="M" horiz-adv-x="998" 
d="M1 543q13 63 64.5 98t117.5 32q74 -4 125 -47.5t68 -116.5q1 -1 3 -13q19 64 44 118q29 61 72 77q27 11 60 8t57 -19q72 -46 80 -223v-29q23 49 65 131q3 5 13.5 28t16.5 34.5t19 26t27 19.5q24 10 55 4t47 -27q5 -5 8.5 -11.5t6 -12t5 -13.5t4 -13t3 -14.5t2.5 -13.5
t1.5 -14.5t1 -13.5t1 -14.5t1.5 -13.5q4 -58 0 -172q-3 -83 -10 -165q-4 -45 -10 -89q-4 -33 -5 -38q-2 -16 -6 -21.5t-19 -14.5q-18 -11 -42.5 -11.5t-42.5 11.5q-17 13 -18.5 26.5t3.5 34.5q4 35 7 70q7 70 11 140q3 48 4 142t3 138q0 7 2 24t2 26q-10 -16 -20 -35.5
t-21.5 -43.5t-18.5 -37q-58 -113 -112 -201q-4 -18 -10 -36q-5 -16 -8.5 -23.5t-11 -14t-21.5 -13.5q-15 -7 -40.5 -6.5t-38.5 11.5q-1 1 -4.5 4l-3.5 3q-11 10 -7 22q32 92 33 193t-30 193q0 1 -5 10q-6 -6 -9 -10q-20 -29 -48 -87q-15 -31 -41.5 -89t-31.5 -69
q14 -118 -5 -213q-20 -95 -65 -138q-54 -52 -155 -45q-17 1 -34.5 10t-10.5 24q12 24 79 20q-14 1 -14 2t4 3q9 4 13 8q12 10 23 29q16 26 25 63q16 62 16 143q0 43 -8 158q0 3 -1.5 23.5t-2 28t-2.5 23t-5 27t-7 22.5q-10 29 -31.5 49t-48.5 22q-30 2 -56 -18t-40 -50
q-16 -29 -14 -61t14.5 -59t38 -47t57.5 -25q15 -3 8 -10q-5 -3 -12 -3q-72 -2 -125.5 51t-38.5 124zM843 639q0 1 -1 0h1zM517 659h-1h1z" />
    <glyph glyph-name="N" unicode="N" horiz-adv-x="740" 
d="M165 368q-72 -2 -125.5 51t-38.5 124q13 63 64.5 98t117.5 32q74 -4 125 -47.5t68 -116.5q4 -13 7 -30l2 4q30 79 77 148q15 23 27 36.5t31.5 27t41.5 16.5q31 5 57.5 -6.5t41.5 -38.5q8 -15 14 -37t7.5 -32.5t5 -44t3.5 -35.5q7 -72 9 -188q0 -31 -7 -186
q-1 -17 -0.5 -35.5t3 -35t10 -33t19.5 -29.5t-8.5 -23t-36.5 -12q-54 -7 -79 20q-17 17 -26 40.5t-11 52t-1.5 50t3.5 55t3 48.5q7 180 19 314q0 7 2 18.5t3 21t2 21.5t1 22t-2.5 20t-7 17.5t-11 9.5t-14 -2.5t-15 -10.5t-16 -17t-15 -19t-14 -20t-10.5 -16.5t-8 -11.5
q-35 -58 -58 -120q-1 -1 -27 -79q15 -122 -4 -220q-20 -95 -65 -138q-54 -52 -155 -45q-17 1 -34.5 10t-10.5 24q12 24 79 20q-14 1 -14 2t4 3q9 4 13 8q12 10 23 29q16 26 25 63q16 62 16 143q0 43 -8 158q0 3 -1.5 23.5t-2 28t-2.5 23t-5 27t-7 22.5q-10 29 -31.5 49
t-48.5 22q-30 2 -56 -18t-40 -50q-16 -29 -14 -61t14.5 -59t38 -47t57.5 -25q15 -3 8 -10q-5 -3 -12 -3z" />
    <glyph glyph-name="O" unicode="O" horiz-adv-x="604" 
d="M575 259q-30 -124 -99 -192q-44 -44 -105 -62.5t-125 -10.5q-43 6 -80 26t-63.5 49.5t-46.5 67.5t-30.5 79.5t-13.5 86t2.5 87t20 82t36 71t53 54.5t69.5 33q14 22 35 37q44 30 102.5 32t106.5 -21q56 -24 92 -72.5t49 -108.5t12 -120t-15 -118zM456 305q14 91 -2 181
t-72 144q-21 21 -43.5 30t-47.5 4t-45 -28q20 0 40 -2q11 -2 21 -5t19.5 -11t4.5 -19q-8 -15 -33 -19t-46 -1l1 -1l-9 -2q-9 -5 -16 -11q-3 -3 -7 -6q2 -29 16 -56q3 -6 -7 -8q-15 -2 -22 2q-11 10 -18 22q-17 -29 -30 -65q-30 -87 -17 -185q12 -84 55 -149q51 -76 94 -71
q59 8 110 97q41 69 54 159z" />
    <glyph glyph-name="O" unicode="&#xd6;" horiz-adv-x="604" 
d="M575 259q-30 -124 -99 -192q-44 -44 -105 -62.5t-125 -10.5q-43 6 -80 26t-63.5 49.5t-46.5 67.5t-30.5 79.5t-13.5 86t2.5 87t20 82t36 71t53 54.5t69.5 33q14 22 35 37q44 30 102.5 32t106.5 -21q56 -24 92 -72.5t49 -108.5t12 -120t-15 -118zM456 305q14 91 -2 181
t-72 144q-21 21 -43.5 30t-47.5 4t-45 -28q20 0 40 -2q11 -2 21 -5t19.5 -11t4.5 -19q-8 -15 -33 -19t-46 -1l1 -1l-9 -2q-9 -5 -16 -11q-3 -3 -7 -6q2 -29 16 -56q3 -6 -7 -8q-15 -2 -22 2q-11 10 -18 22q-17 -29 -30 -65q-30 -87 -17 -185q12 -84 55 -149q51 -76 94 -71
q59 8 110 97q41 69 54 159z" />
    <glyph glyph-name="O" unicode="&#xd5;" horiz-adv-x="604" 
d="M575 259q-30 -124 -99 -192q-44 -44 -105 -62.5t-125 -10.5q-43 6 -80 26t-63.5 49.5t-46.5 67.5t-30.5 79.5t-13.5 86t2.5 87t20 82t36 71t53 54.5t69.5 33q14 22 35 37q44 30 102.5 32t106.5 -21q56 -24 92 -72.5t49 -108.5t12 -120t-15 -118zM456 305q14 91 -2 181
t-72 144q-21 21 -43.5 30t-47.5 4t-45 -28q20 0 40 -2q11 -2 21 -5t19.5 -11t4.5 -19q-8 -15 -33 -19t-46 -1l1 -1l-9 -2q-9 -5 -16 -11q-3 -3 -7 -6q2 -29 16 -56q3 -6 -7 -8q-15 -2 -22 2q-11 10 -18 22q-17 -29 -30 -65q-30 -87 -17 -185q12 -84 55 -149q51 -76 94 -71
q59 8 110 97q41 69 54 159z" />
    <glyph glyph-name="O" unicode="&#xd4;" horiz-adv-x="604" 
d="M575 259q-30 -124 -99 -192q-44 -44 -105 -62.5t-125 -10.5q-43 6 -80 26t-63.5 49.5t-46.5 67.5t-30.5 79.5t-13.5 86t2.5 87t20 82t36 71t53 54.5t69.5 33q14 22 35 37q44 30 102.5 32t106.5 -21q56 -24 92 -72.5t49 -108.5t12 -120t-15 -118zM456 305q14 91 -2 181
t-72 144q-21 21 -43.5 30t-47.5 4t-45 -28q20 0 40 -2q11 -2 21 -5t19.5 -11t4.5 -19q-8 -15 -33 -19t-46 -1l1 -1l-9 -2q-9 -5 -16 -11q-3 -3 -7 -6q2 -29 16 -56q3 -6 -7 -8q-15 -2 -22 2q-11 10 -18 22q-17 -29 -30 -65q-30 -87 -17 -185q12 -84 55 -149q51 -76 94 -71
q59 8 110 97q41 69 54 159z" />
    <glyph glyph-name="O" unicode="&#xd3;" horiz-adv-x="604" 
d="M575 259q-30 -124 -99 -192q-44 -44 -105 -62.5t-125 -10.5q-43 6 -80 26t-63.5 49.5t-46.5 67.5t-30.5 79.5t-13.5 86t2.5 87t20 82t36 71t53 54.5t69.5 33q14 22 35 37q44 30 102.5 32t106.5 -21q56 -24 92 -72.5t49 -108.5t12 -120t-15 -118zM456 305q14 91 -2 181
t-72 144q-21 21 -43.5 30t-47.5 4t-45 -28q20 0 40 -2q11 -2 21 -5t19.5 -11t4.5 -19q-8 -15 -33 -19t-46 -1l1 -1l-9 -2q-9 -5 -16 -11q-3 -3 -7 -6q2 -29 16 -56q3 -6 -7 -8q-15 -2 -22 2q-11 10 -18 22q-17 -29 -30 -65q-30 -87 -17 -185q12 -84 55 -149q51 -76 94 -71
q59 8 110 97q41 69 54 159z" />
    <glyph glyph-name="P" unicode="P" horiz-adv-x="743" 
d="M639 686q53 -26 78.5 -81.5t21.5 -118.5q-4 -68 -40 -124.5t-96 -86.5q-95 -46 -199 -19q-2 -46 -10 -87q-20 -95 -65 -138q-54 -52 -155 -45q-17 1 -34.5 10t-10.5 24q12 24 79 20q-14 1 -14 2t4 3q9 4 13 8q12 10 23 29q16 26 25 63q16 62 16 143q0 43 -8 158
q0 3 -1.5 23.5t-2 28t-2.5 23t-5 27t-7 22.5q-7 18 -18 33t-27.5 25.5t-34.5 12.5q-30 2 -56 -18t-40 -50q-16 -29 -14 -61t14.5 -59t38 -47t57.5 -25q15 -3 8 -10q-5 -3 -12 -3q-72 -2 -125.5 51t-38.5 124q13 63 64.5 98t117.5 32q74 -4 124.5 -47.5t68.5 -115.5
q15 89 57 135q38 43 96.5 54.5t109.5 -13.5zM586 394q25 47 32 105t-5 110q-7 31 -26 51.5t-48 13.5q-58 -15 -93 -88q-18 -37 -31 -113t-16 -87q3 -28 5 -57q22 -3 38 -13q23 -12 43.5 -10t40.5 17.5t34.5 33t25.5 37.5z" />
    <glyph glyph-name="Q" unicode="Q" horiz-adv-x="605" 
d="M437 678q56 -24 92 -72.5t49 -108t12 -120t-15 -118.5q-30 -124 -99 -192q0 -1 -6 -6q24 -63 66 -92q8 -6 8.5 -12t-5 -10.5t-12 -8t-12.5 -5.5q-43 -12 -80 9.5t-58 64.5q-64 -21 -131 -13q-53 7 -97 36t-72 71t-45 94.5t-20.5 107t6.5 108t32 98t59 77t84 44.5
q14 22 35 37q44 30 102.5 32t106.5 -21zM292 49q31 4 62 34q-3 20 -5 42q0 5 -1.5 27t-2.5 31.5t-4 25.5t-8 29q-4 10 -10.5 19t-12 15t-14.5 15l-15 15q-3 4 5 6t11 1q79 -7 129 -115q21 51 30 111q7 42 7 85t-7 87t-26 84.5t-48 68.5q-21 21 -43.5 30t-47.5 4t-45 -28
q20 0 40 -2q11 -2 21 -5t19.5 -11t4.5 -19q-8 -15 -33 -19t-46 -1l1 -1l-9 -2q-9 -5 -16 -11q-3 -3 -7 -6q2 -29 16 -56q3 -6 -7 -8q-15 -2 -22 2q-11 10 -18 22q-17 -29 -30 -65q-30 -87 -17 -185q12 -84 55 -149q51 -76 94 -71z" />
    <glyph glyph-name="R" unicode="R" horiz-adv-x="744" 
d="M689 -30q10 1 25.5 1t31.5 -5t20 -15q11 -25 -44 -34q-67 -12 -122.5 21t-76.5 98q-6 16 -14 54t-14.5 65t-23.5 55.5t-41 40.5q-12 2 -26 5q-2 -46 -10 -87q-20 -95 -65 -138q-54 -52 -155 -45q-17 1 -34.5 10t-10.5 24q12 24 79 20q-14 1 -14 2t4 3q9 4 13 8
q12 10 23 29q16 26 25 63q16 62 16 143q0 43 -8 158q0 3 -1.5 23.5t-2 28t-2.5 23t-5 27t-7 22.5q-10 29 -31.5 49t-48.5 22q-30 2 -56 -18t-40 -50q-16 -29 -14 -61t14.5 -59t38 -47t57.5 -25q15 -3 8 -10q-5 -3 -12 -3q-72 -2 -125.5 51t-38.5 124q13 63 64.5 98t117.5 32
q74 -4 124.5 -47.5t68.5 -115.5q15 88 57 135q38 43 96.5 54.5t109.5 -13.5q53 -26 78.5 -81.5t21.5 -118.5q-4 -68 -40 -124.5t-96 -86.5q-49 -23 -107 -27q43 -29 69 -83q9 -17 25.5 -61.5t29.5 -66.5q17 -31 40 -50q3 -3 12 -8t12 -8l3 -1h2zM446 586q-18 -37 -31 -113
t-16 -87q3 -28 5 -57q22 -3 38 -13q23 -12 43.5 -10t40.5 17.5t34.5 33t25.5 37.5q25 47 32 105t-5 110q-7 31 -26 51.5t-48 13.5q-58 -15 -93 -88z" />
    <glyph glyph-name="S" unicode="S" horiz-adv-x="512" 
d="M170 685q30 17 64 26t69.5 9.5t68.5 -8t62.5 -28t49.5 -49.5q23 -33 26 -73t-15 -76q-32 -70 -124 -104q-10 -4 -20 2q-1 3 2 5q47 24 78 74.5t25 100.5q-7 61 -59.5 97.5t-111.5 19.5q-45 -13 -82 -51t-55.5 -85.5t-16.5 -99.5t30 -91q20 -28 55 -54t68.5 -46t65.5 -44
t52.5 -58t23.5 -77q3 -51 -31 -86.5t-83.5 -47t-103 -5.5t-87.5 30q-33 23 -43 64.5t12 75.5q20 30 58 40t71 -4q12 -5 2 -15q-8 -7 -32 -3q-27 6 -40.5 -25t-6.5 -55q8 -24 30.5 -43.5t46.5 -21.5q26 -3 44.5 11.5t25.5 37t6.5 47.5t-8.5 44q-11 24 -29 44.5t-39 36
t-44.5 30t-46.5 29.5t-44 31t-38.5 37.5t-27.5 46.5q-23 59 -3.5 120.5t62 111.5t93.5 79z" />
    <glyph glyph-name="T" unicode="T" horiz-adv-x="822" 
d="M823 632q9 -6 9 -12.5t-6 -11.5t-13 -9t-13 -6q-52 -13 -89 11q-38 24 -88 33t-91.5 6.5t-96.5 -11.5q6 -15 8 -35t1.5 -34t-2 -38t-2.5 -34q0 -20 -2 -75t-3 -85q-1 -89 -1 -159q0 -18 2.5 -76.5t1.5 -90.5q0 -18 -30.5 -25.5t-62 0t-33.5 25.5q-3 18 -4.5 35.5
t-2.5 37.5t-1.5 34.5t-0.5 38v35t0.5 38t1 35t1 38t1.5 34.5q3 101 9 160q0 8 2 23q-11 1 -13 5q-3 8 -8.5 21.5t-9 22t-9 19.5t-10.5 20q-45 -8 -81 -11q-108 -8 -165 12q-33 11 -33 38t30 42q48 27 121 20q78 -8 131 -58q4 -3 8 -8q20 5 66 18t71.5 19.5t64 13.5t71.5 9
q159 8 271 -65zM106 611q61 -1 142 18q-5 5 -9 8q-62 58 -140 49q-64 -7 -70 -39q-1 -7 0 -12t4 -8.5t7.5 -6.5t9.5 -4.5t11.5 -2.5t12.5 -1.5l12 -1t11 0t9 0.5zM303 608q13 -19 20 -37q4 24 11 43q-19 -4 -31 -6z" />
    <glyph glyph-name="U" unicode="U" horiz-adv-x="577" 
d="M446 673q15 16 46 16.5t45 -16.5q13 -16 15 -39t0 -43q-2 -32 -5 -89q-3 -63 -9 -179q-3 -62 -9 -178q-1 -15 -2.5 -44.5t-2.5 -44.5q0 -5 -0.5 -12.5t-1 -14t-0.5 -12.5q-2 -14 -5.5 -20t-16.5 -16q-14 -12 -43.5 -12.5t-44.5 12.5q-12 11 -15 16.5t-3 19.5q0 1 2 39v3
q-10 -11 -20 -20q-53 -50 -137.5 -55t-137.5 46q-17 19 -26.5 42t-11 49.5t0.5 51t9.5 54t14.5 49.5t16 46q9 24 30.5 76t31.5 79q2 6 8 22t9 25t8 24.5t6.5 27t2 24.5t-3 25t-9.5 22q-13 20 -35 21t-41.5 -11t-33.5 -28q-25 -31 -32 -69q-8 -40 6.5 -80.5t45.5 -66.5
q5 -5 -7 -7q-10 -1 -14 2q-78 59 -68 142q3 24 13.5 46.5t27 41.5t38.5 30q45 21 87 16.5t74 -36.5t38 -80q3 -27 -1.5 -59t-10 -51.5t-17.5 -56.5q-4 -12 -17.5 -50t-21 -63.5t-13.5 -51.5q-24 -108 -1 -160q9 -20 22 -30q2 -1 12 -7q1 0 7 -1q15 2 40 16q67 42 100 123
q11 28 20 66q1 13 2.5 40t1.5 40q2 25 3.5 57.5t3 64.5t2.5 57q3 57 6 89q0 3 0.5 12.5t1 13t1 11.5t2 12.5t4 11t5.5 11.5t8 10z" />
    <glyph glyph-name="U" unicode="&#xdc;" horiz-adv-x="577" 
d="M446 673q15 16 46 16.5t45 -16.5q13 -16 15 -39t0 -43q-2 -32 -5 -89q-3 -63 -9 -179q-3 -62 -9 -178q-1 -15 -2.5 -44.5t-2.5 -44.5q0 -5 -0.5 -12.5t-1 -14t-0.5 -12.5q-2 -14 -5.5 -20t-16.5 -16q-14 -12 -43.5 -12.5t-44.5 12.5q-12 11 -15 16.5t-3 19.5q0 1 2 39v3
q-10 -11 -20 -20q-53 -50 -137.5 -55t-137.5 46q-17 19 -26.5 42t-11 49.5t0.5 51t9.5 54t14.5 49.5t16 46q9 24 30.5 76t31.5 79q2 6 8 22t9 25t8 24.5t6.5 27t2 24.5t-3 25t-9.5 22q-13 20 -35 21t-41.5 -11t-33.5 -28q-25 -31 -32 -69q-8 -40 6.5 -80.5t45.5 -66.5
q5 -5 -7 -7q-10 -1 -14 2q-78 59 -68 142q3 24 13.5 46.5t27 41.5t38.5 30q45 21 87 16.5t74 -36.5t38 -80q3 -27 -1.5 -59t-10 -51.5t-17.5 -56.5q-4 -12 -17.5 -50t-21 -63.5t-13.5 -51.5q-24 -108 -1 -160q9 -20 22 -30q2 -1 12 -7q1 0 7 -1q15 2 40 16q67 42 100 123
q11 28 20 66q1 13 2.5 40t1.5 40q2 25 3.5 57.5t3 64.5t2.5 57q3 57 6 89q0 3 0.5 12.5t1 13t1 11.5t2 12.5t4 11t5.5 11.5t8 10z" />
    <glyph glyph-name="U" unicode="&#xdb;" horiz-adv-x="577" 
d="M446 673q15 16 46 16.5t45 -16.5q13 -16 15 -39t0 -43q-2 -32 -5 -89q-3 -63 -9 -179q-3 -62 -9 -178q-1 -15 -2.5 -44.5t-2.5 -44.5q0 -5 -0.5 -12.5t-1 -14t-0.5 -12.5q-2 -14 -5.5 -20t-16.5 -16q-14 -12 -43.5 -12.5t-44.5 12.5q-12 11 -15 16.5t-3 19.5q0 1 2 39v3
q-10 -11 -20 -20q-53 -50 -137.5 -55t-137.5 46q-17 19 -26.5 42t-11 49.5t0.5 51t9.5 54t14.5 49.5t16 46q9 24 30.5 76t31.5 79q2 6 8 22t9 25t8 24.5t6.5 27t2 24.5t-3 25t-9.5 22q-13 20 -35 21t-41.5 -11t-33.5 -28q-25 -31 -32 -69q-8 -40 6.5 -80.5t45.5 -66.5
q5 -5 -7 -7q-10 -1 -14 2q-78 59 -68 142q3 24 13.5 46.5t27 41.5t38.5 30q45 21 87 16.5t74 -36.5t38 -80q3 -27 -1.5 -59t-10 -51.5t-17.5 -56.5q-4 -12 -17.5 -50t-21 -63.5t-13.5 -51.5q-24 -108 -1 -160q9 -20 22 -30q2 -1 12 -7q1 0 7 -1q15 2 40 16q67 42 100 123
q11 28 20 66q1 13 2.5 40t1.5 40q2 25 3.5 57.5t3 64.5t2.5 57q3 57 6 89q0 3 0.5 12.5t1 13t1 11.5t2 12.5t4 11t5.5 11.5t8 10z" />
    <glyph glyph-name="U" unicode="&#xda;" horiz-adv-x="577" 
d="M446 673q15 16 46 16.5t45 -16.5q13 -16 15 -39t0 -43q-2 -32 -5 -89q-3 -63 -9 -179q-3 -62 -9 -178q-1 -15 -2.5 -44.5t-2.5 -44.5q0 -5 -0.5 -12.5t-1 -14t-0.5 -12.5q-2 -14 -5.5 -20t-16.5 -16q-14 -12 -43.5 -12.5t-44.5 12.5q-12 11 -15 16.5t-3 19.5q0 1 2 39v3
q-10 -11 -20 -20q-53 -50 -137.5 -55t-137.5 46q-17 19 -26.5 42t-11 49.5t0.5 51t9.5 54t14.5 49.5t16 46q9 24 30.5 76t31.5 79q2 6 8 22t9 25t8 24.5t6.5 27t2 24.5t-3 25t-9.5 22q-13 20 -35 21t-41.5 -11t-33.5 -28q-25 -31 -32 -69q-8 -40 6.5 -80.5t45.5 -66.5
q5 -5 -7 -7q-10 -1 -14 2q-78 59 -68 142q3 24 13.5 46.5t27 41.5t38.5 30q45 21 87 16.5t74 -36.5t38 -80q3 -27 -1.5 -59t-10 -51.5t-17.5 -56.5q-4 -12 -17.5 -50t-21 -63.5t-13.5 -51.5q-24 -108 -1 -160q9 -20 22 -30q2 -1 12 -7q1 0 7 -1q15 2 40 16q67 42 100 123
q11 28 20 66q1 13 2.5 40t1.5 40q2 25 3.5 57.5t3 64.5t2.5 57q3 57 6 89q0 3 0.5 12.5t1 13t1 11.5t2 12.5t4 11t5.5 11.5t8 10z" />
    <glyph glyph-name="V" unicode="V" horiz-adv-x="642" 
d="M467 659q-9 23 32 33q46 11 77 -5q10 -6 13 -13q36 -98 39 -199.5t-29 -200.5q-30 -89 -80 -165q-31 -46 -63 -74.5t-76 -37.5q-49 -10 -97 5t-70 56q-7 13 -12.5 29.5t-8.5 27.5t-6 34t-3.5 29.5t-2.5 34t-2 28.5q-8 124 -4 230q0 5 2 35t1.5 42t-3 35t-11 39t-22.5 28
q-22 20 -48 15.5t-41 -30.5q-19 -33 -11 -84q4 -23 14.5 -45.5t19 -35t29 -38.5t26.5 -34q3 -4 -5 -6q-12 -2 -17 1q-31 16 -59.5 55t-43.5 83t-4 86t54 61q54 22 101 1.5t80.5 -63t46.5 -91.5q6 -25 10 -55.5t5.5 -52t2.5 -59.5t2 -53q1 -10 2.5 -50.5t3 -59.5t6.5 -49.5
t13 -52.5q2 -7 9.5 -19t10.5 -17q1 -2 3 -4l4 2q25 15 58 67q51 78 72 169q44 201 -18 368zM338 49q0 -1 3 0h-3z" />
    <glyph glyph-name="W" unicode="W" horiz-adv-x="818" 
d="M758 522q27 -78 37 -157q28 -217 -49 -303q-50 -54 -128.5 -58.5t-133.5 45.5q-31 27 -50 68q-24 -47 -58 -78q-53 -50 -137.5 -55t-137.5 46q-17 19 -26.5 42t-11 49.5t0.5 51t9.5 54t14.5 49.5t16 46q9 24 30.5 76t31.5 79q2 6 8 22t9 25t8 24.5t6.5 27t2 24.5t-3 25
t-9.5 22q-13 20 -35 21t-41.5 -11t-33.5 -28q-25 -31 -32 -69q-8 -40 6.5 -80.5t45.5 -66.5q5 -5 -7 -7q-10 -1 -14 2q-78 59 -68 142q3 24 13.5 46.5t27 41.5t38.5 30q45 21 87 16.5t74 -36.5t38 -80q3 -27 -1.5 -59t-10 -51.5t-17.5 -56.5q-5 -15 -14 -40.5t-14.5 -42
t-12 -39.5t-11.5 -43q-24 -108 -1 -160q9 -20 22 -30q2 -1 12 -7q1 0 7 -1q15 2 40 16q67 42 100 123q11 26 19 61q-4 61 8 125q5 27 59 28q50 2 66 -17q4 -5 3 -11q-9 -46 -10.5 -90.5t7 -92.5t28.5 -85q37 -68 80 -42q47 30 69 107q30 113 8 261q-9 63 -31 127
q-2 6 -20.5 49t-20.5 66q-1 7 12.5 7t17.5 -4q41 -38 78 -144z" />
    <glyph glyph-name="X" unicode="X" horiz-adv-x="642" 
d="M643 715q12 8 36 1q13 -6 7 -12q-187 -133 -311 -313l-12 -18q22 -115 62 -186q35 -62 82 -102q29 -26 57 -41q5 -2 25 -10.5t30 -16.5q28 -22 -27 -34q-27 -6 -41 -4q-44 4 -89 29t-79 58.5t-61 72.5q-25 37 -45 82q-24 -50 -98 -224q-2 -2 -7.5 -3t-11 0t-4.5 5
q13 135 98 286q-20 65 -31 148q-1 8 -2.5 24t-2.5 31.5t-3 35.5t-5 36.5t-8.5 34.5t-13 29.5t-18.5 22t-25 11t-33 -2.5q-32 -10 -50.5 -35t-20 -55t7.5 -59.5t33 -50.5t56 -25q8 -1 8 -5q-3 -5 -12 -5q-70 4 -107 47q-44 50 -25 116q17 56 70.5 81t113.5 13q68 -13 110 -65
q30 -38 46 -122q4 -18 10 -54q125 166 291 279z" />
    <glyph glyph-name="Y" unicode="Y" horiz-adv-x="706" 
d="M528 667q-3 17 27 25t63.5 1t37.5 -26q85 -332 -41 -526q-40 -62 -101.5 -104t-133.5 -53.5t-143 22.5q-11 5 5 9q8 1 11 0q54 -17 103.5 -6.5t90.5 40.5t70.5 73.5t42.5 93.5q20 72 15 158q-36 -74 -95 -113q-38 -26 -87 -38.5t-100 -7t-88 32.5q-26 18 -36.5 43
t-6.5 54t11.5 53.5t21 58t17.5 49.5q22 74 -2 133q-13 30 -39.5 36t-53 -7t-43.5 -35q-26 -33 -33.5 -83t11 -96.5t61.5 -62.5q12 -5 -7 -9q-7 -2 -10 -1q-30 7 -51 25t-31 42t-13 52t2 56t17 53q26 56 85.5 79t118.5 2q38 -14 62 -40.5t33 -60t8 -69.5t-11 -74
q-3 -9 -9 -26.5t-9.5 -29.5t-6.5 -28t-2 -30.5t6 -27.5q10 -27 31 -31t45 8q48 18 86 47.5t64.5 71t34.5 90.5q1 4 5 7q-4 23 -10.5 54t-12.5 62t-10 54z" />
    <glyph glyph-name="Y" unicode="&#x178;" horiz-adv-x="706" 
d="M528 667q-3 17 27 25t63.5 1t37.5 -26q85 -332 -41 -526q-40 -62 -101.5 -104t-133.5 -53.5t-143 22.5q-11 5 5 9q8 1 11 0q54 -17 103.5 -6.5t90.5 40.5t70.5 73.5t42.5 93.5q20 72 15 158q-36 -74 -95 -113q-38 -26 -87 -38.5t-100 -7t-88 32.5q-26 18 -36.5 43
t-6.5 54t11.5 53.5t21 58t17.5 49.5q22 74 -2 133q-13 30 -39.5 36t-53 -7t-43.5 -35q-26 -33 -33.5 -83t11 -96.5t61.5 -62.5q12 -5 -7 -9q-7 -2 -10 -1q-30 7 -51 25t-31 42t-13 52t2 56t17 53q26 56 85.5 79t118.5 2q38 -14 62 -40.5t33 -60t8 -69.5t-11 -74
q-3 -9 -9 -26.5t-9.5 -29.5t-6.5 -28t-2 -30.5t6 -27.5q10 -27 31 -31t45 8q48 18 86 47.5t64.5 71t34.5 90.5q1 4 5 7q-4 23 -10.5 54t-12.5 62t-10 54z" />
    <glyph glyph-name="Y" unicode="&#xdd;" horiz-adv-x="706" 
d="M528 667q-3 17 27 25t63.5 1t37.5 -26q85 -332 -41 -526q-40 -62 -101.5 -104t-133.5 -53.5t-143 22.5q-11 5 5 9q8 1 11 0q54 -17 103.5 -6.5t90.5 40.5t70.5 73.5t42.5 93.5q20 72 15 158q-36 -74 -95 -113q-38 -26 -87 -38.5t-100 -7t-88 32.5q-26 18 -36.5 43
t-6.5 54t11.5 53.5t21 58t17.5 49.5q22 74 -2 133q-13 30 -39.5 36t-53 -7t-43.5 -35q-26 -33 -33.5 -83t11 -96.5t61.5 -62.5q12 -5 -7 -9q-7 -2 -10 -1q-30 7 -51 25t-31 42t-13 52t2 56t17 53q26 56 85.5 79t118.5 2q38 -14 62 -40.5t33 -60t8 -69.5t-11 -74
q-3 -9 -9 -26.5t-9.5 -29.5t-6.5 -28t-2 -30.5t6 -27.5q10 -27 31 -31t45 8q48 18 86 47.5t64.5 71t34.5 90.5q1 4 5 7q-4 23 -10.5 54t-12.5 62t-10 54z" />
    <glyph glyph-name="Z" unicode="Z" horiz-adv-x="642" 
d="M619 546q6 -2 11.5 -5.5t9.5 -8.5t3 -11t-8 -11q-15 -11 -34 -20q-79 -49 -154 -168q27 -1 48 -4q44 -8 44 -26q0 -20 -44 -26q-34 -4 -83 -1q-4 -7 -7 -11q-30 -52 -48.5 -81.5t-50.5 -71t-63 -70.5q25 3 57 5q9 1 37 2t47 2.5t37 4.5q12 2 24.5 6t20.5 8l22 11t21 11
q33 15 74 4q12 -3 24 -11.5t4 -18.5q-52 -66 -221 -69q-23 -1 -68 1t-66 2q-29 0 -86 -10q-17 -6 -38 -6q-8 -1 -13 -2q-4 0 -13.5 1.5t-9.5 5.5q-10 4 -17.5 9.5t-10.5 13.5t8 15q28 18 54 43t43 44.5t41.5 57t33.5 52.5t35 59q-33 4 -49 18q-8 7 0 13q24 16 78 17
q67 106 135 165q-24 7 -43 19q-34 19 -80.5 73.5t-74.5 73.5q-53 34 -110.5 14t-83.5 -78q-22 -50 -2.5 -102.5t68.5 -77.5q15 -7 -6 -11q-13 -2 -19 0q-49 17 -75.5 62t-18.5 96q7 47 41 84.5t80 53.5q60 19 120.5 9t113.5 -44q21 -14 56 -47t44 -39q30 -26 51 -35
q3 -2 6 -3q10 6 20 11q17 9 42 9t43 -7z" />
    <glyph glyph-name="bracketleft" unicode="[" horiz-adv-x="310" 
d="M257 526q-6 -14 -29.5 -17.5t-43.5 -0.5q-14 2 -44 4q4 -12 6 -27.5t2.5 -26t1 -29t0.5 -25.5q3 -72 8 -140q13 -183 24 -282h1h2q10 0 24.5 0.5t29.5 -5t18 -16.5q2 -9 -4 -15t-17.5 -8.5t-19.5 -3.5l-16 -2q-75 -2 -103 6q-9 2 -14 7t-4 10q-23 7 -25 23
q-19 170 -23 286q-3 88 -2 147v16.5t0.5 19.5t1 17.5t1.5 19t3 17.5t5 18t7 16q-5 9 10 16q21 10 52.5 12.5t51.5 1t55 -6.5q9 -1 19 -4t18.5 -10.5t3.5 -17.5z" />
    <glyph glyph-name="backslash" unicode="\" horiz-adv-x="542" 
d="M486 49q6 -12 6.5 -17t-5.5 -18q-9 -16 -42.5 -18t-46.5 8q-11 6 -15.5 9t-9.5 8t-10 13t-13 24t-9 19q-20 37 -40 73q-15 26 -91 155q-17 28 -48.5 79.5t-42.5 71.5q-36 59 -41 69q-28 51 -28 74q0 8 11 10.5t22.5 0.5t16.5 -5q8 -5 16 -11t14 -11t14 -13t13 -12.5
t13.5 -14.5t12 -14t12.5 -15.5t11.5 -14.5t12 -15.5t10.5 -14.5q49 -63 104 -149q36 -56 91 -155q21 -36 40 -73q20 -37 22 -43z" />
    <glyph glyph-name="bracketright" unicode="]" horiz-adv-x="291" 
d="M258 132q0 -14 1.5 -43.5t1.5 -52.5t-3 -43q1 -11 -20 -20v-3q0 -14 -19 -19.5t-37 -5.5h-23t-26.5 0.5t-23.5 1.5t-25 5t-20 10q-5 3 -5 8.5t5 8.5q24 15 69 16q-4 21 -4.5 44t0.5 55t1 45q-1 70 0 140q0 86 3 147q4 72 13 99h-10q-38 3 -62 11q-30 9 -23 24q8 17 48 16
q7 -1 23.5 -2t24.5 -1q36 0 45 -1q33 3 43 -13q5 -9 9 -18t6 -20t3.5 -19.5t2.5 -21t1 -19.5v-21v-20q1 -43 1 -141v-147z" />
    <glyph glyph-name="asciicircum" unicode="^" horiz-adv-x="293" 
d="M278 363q9 -24 -32 -33q-45 -10 -78 7q-9 5 -12 11q-16 28 -33 71q-30 -53 -55 -80q-9 -10 -38 -9q-21 2 -20 13q0 1 1 3q6 15 14 31t19.5 35t16.5 30q6 12 16.5 35.5t16.5 34.5q0 1 -0.5 4t-0.5 5q4 4 12 11l6 9q3 4 10 6l7 7q31 7 55 -6q10 -4 18 -15t11 -17t10 -22
q42 -94 56 -131z" />
    <glyph glyph-name="underscore" unicode="_" horiz-adv-x="371" 
d="M310 16q58 -3 58 -26q0 -14 -20.5 -20t-37.5 -5q-22 1 -66 2.5t-70.5 3t-64 4t-68.5 7.5q-8 1 -15 2.5t-14 7.5t-6 13q4 17 48 19q78 -1 85.5 -0.5t85.5 -3.5t85 -4z" />
    <glyph glyph-name="grave" unicode="`" horiz-adv-x="232" 
d="M206 506q17 -10 15 -20t-20 -17t-42 -5.5t-40 12.5q-33 22 -62 42q-1 2 -11.5 9t-15 10.5t-10.5 10t-9 13.5q-5 13 17.5 16.5t30.5 -0.5q18 -4 40.5 -13.5t33 -15.5t40.5 -23t33 -19z" />
    <glyph glyph-name="a" unicode="a" horiz-adv-x="577" 
d="M550 63q13 3 24 -5q5 -3 -1 -8q-36 -27 -107 -9q-50 13 -83 47q-36 -43 -85 -66q-44 -20 -97.5 -23t-103.5 18.5t-71 66.5q-32 67 4 133.5t106 94.5q71 29 155 15q30 -5 49 -15q17 17 61.5 16t57.5 -18l4 -3q8 -5 9 -14q-5 -18 -7.5 -29.5t-6 -29.5t-4 -31.5t0.5 -30
t4 -30.5q9 -35 28 -58q13 -16 27 -20t36 -1zM259 93q54 59 71 180q-21 30 -61.5 36t-79.5 -8t-62 -40q-35 -37 -38.5 -87.5t28.5 -91.5q21 -26 47 -31t50 6.5t45 35.5z" />
    <glyph glyph-name="a" unicode="&#xe5;" horiz-adv-x="577" 
d="M550 63q13 3 24 -5q5 -3 -1 -8q-36 -27 -107 -9q-50 13 -83 47q-36 -43 -85 -66q-44 -20 -97.5 -23t-103.5 18.5t-71 66.5q-32 67 4 133.5t106 94.5q71 29 155 15q30 -5 49 -15q17 17 61.5 16t57.5 -18l4 -3q8 -5 9 -14q-5 -18 -7.5 -29.5t-6 -29.5t-4 -31.5t0.5 -30
t4 -30.5q9 -35 28 -58q13 -16 27 -20t36 -1zM259 93q54 59 71 180q-21 30 -61.5 36t-79.5 -8t-62 -40q-35 -37 -38.5 -87.5t28.5 -91.5q21 -26 47 -31t50 6.5t45 35.5z" />
    <glyph glyph-name="a" unicode="&#xe3;" horiz-adv-x="577" 
d="M550 63q13 3 24 -5q5 -3 -1 -8q-36 -27 -107 -9q-50 13 -83 47q-36 -43 -85 -66q-44 -20 -97.5 -23t-103.5 18.5t-71 66.5q-32 67 4 133.5t106 94.5q71 29 155 15q30 -5 49 -15q17 17 61.5 16t57.5 -18l4 -3q8 -5 9 -14q-5 -18 -7.5 -29.5t-6 -29.5t-4 -31.5t0.5 -30
t4 -30.5q9 -35 28 -58q13 -16 27 -20t36 -1zM259 93q54 59 71 180q-21 30 -61.5 36t-79.5 -8t-62 -40q-35 -37 -38.5 -87.5t28.5 -91.5q21 -26 47 -31t50 6.5t45 35.5z" />
    <glyph glyph-name="a" unicode="&#xe2;" horiz-adv-x="577" 
d="M550 63q13 3 24 -5q5 -3 -1 -8q-36 -27 -107 -9q-50 13 -83 47q-36 -43 -85 -66q-44 -20 -97.5 -23t-103.5 18.5t-71 66.5q-32 67 4 133.5t106 94.5q71 29 155 15q30 -5 49 -15q17 17 61.5 16t57.5 -18l4 -3q8 -5 9 -14q-5 -18 -7.5 -29.5t-6 -29.5t-4 -31.5t0.5 -30
t4 -30.5q9 -35 28 -58q13 -16 27 -20t36 -1zM259 93q54 59 71 180q-21 30 -61.5 36t-79.5 -8t-62 -40q-35 -37 -38.5 -87.5t28.5 -91.5q21 -26 47 -31t50 6.5t45 35.5z" />
    <glyph glyph-name="a" unicode="&#xe1;" horiz-adv-x="577" 
d="M550 63q13 3 24 -5q5 -3 -1 -8q-36 -27 -107 -9q-50 13 -83 47q-36 -43 -85 -66q-44 -20 -97.5 -23t-103.5 18.5t-71 66.5q-32 67 4 133.5t106 94.5q71 29 155 15q30 -5 49 -15q17 17 61.5 16t57.5 -18l4 -3q8 -5 9 -14q-5 -18 -7.5 -29.5t-6 -29.5t-4 -31.5t0.5 -30
t4 -30.5q9 -35 28 -58q13 -16 27 -20t36 -1zM259 93q54 59 71 180q-21 30 -61.5 36t-79.5 -8t-62 -40q-35 -37 -38.5 -87.5t28.5 -91.5q21 -26 47 -31t50 6.5t45 35.5z" />
    <glyph glyph-name="b" unicode="b" horiz-adv-x="516" 
d="M485 206q17 -41 18 -79t-20.5 -71t-63.5 -49q-62 -27 -136.5 -15.5t-124.5 58.5l-3 3l-1 -27q0 -19 -32.5 -26.5t-64 0t-31.5 26.5q6 280 7 321q2 76 7 157q0 6 1 30t2 35.5t3.5 30.5t7.5 33.5t13 26.5q8 14 36.5 14t36.5 -14q8 -12 12.5 -27t6 -34t2.5 -30.5t0.5 -35
t-0.5 -29.5q1 -82 0 -157q0 -10 -1 -51q25 22 59.5 33.5t68.5 9.5q64 -2 116 -38.5t81 -94.5zM385 102q20 50 5 103.5t-57 86.5q-28 22 -57.5 24t-53.5 -12.5t-41 -39.5q7 -12 12.5 -25.5t11.5 -36t8 -27.5q19 -60 56 -96q35 -35 55 -34q19 1 35.5 19t25.5 38z" />
    <glyph glyph-name="c" unicode="c" horiz-adv-x="461" 
d="M415 66q7 10 32 6q13 -2 12 -8v-3q-18 -29 -50.5 -48t-68.5 -24.5t-75 -7t-70 4.5q-80 11 -134.5 71.5t-46.5 140.5q8 77 71.5 118.5t143.5 34.5q91 -9 117 -69q13 -31 5 -60t-34 -49q-6 -6 -26.5 -6t-20.5 11q-2 50 -17 77q-11 21 -27 32q-7 4 -15 8q-2 1 -9 1
q-8 -4 -14 -8q-16 -11 -29 -30q-23 -35 -23 -82q-1 -48 21.5 -94t64.5 -61q47 -19 104.5 -7t88.5 52z" />
    <glyph glyph-name="d" unicode="d" horiz-adv-x="504" 
d="M478 504q1 -81 0 -157q-1 -79 -7 -321q-1 -19 -33 -26.5t-64 0t-31 26.5v6v6v6v6q-21 -17 -46 -28q-44 -20 -97.5 -23t-103.5 18.5t-71 66.5q-32 67 4 133.5t106 94.5q71 29 155 15q30 -5 49 -15q4 4 10 7q0 3 0.5 13t0.5 15q2 76 6 157q1 8 1.5 25.5t1 28t2.5 26.5
t4.5 27.5t7 25t11.5 23.5q8 14 36.5 14t36.5 -14q7 -12 12 -27t6.5 -34t2 -30.5t0.5 -35v-29.5zM258 93q54 59 71 180q-21 30 -61.5 36t-79.5 -8t-62 -40q-35 -37 -38.5 -87.5t28.5 -91.5q21 -26 47 -31t50 6.5t45 35.5z" />
    <glyph glyph-name="e" unicode="e" horiz-adv-x="346" 
d="M323 82q21 -16 15 -33t-22.5 -29.5t-34.5 -17.5q-85 -26 -161 -7q-74 18 -97 74q-21 55 3 129q21 66 66 106t111 38q57 -2 85.5 -47t-1.5 -96q-23 -38 -65 -54.5t-90 -12.5q3 -39 21 -65q20 -28 59 -30q28 -1 41 5q7 3 11.5 7.5t6.5 8.5t5.5 10.5t5.5 10.5q5 8 19.5 8
t21.5 -5zM149 247q-17 -53 -18 -96q48 3 81.5 25.5t35.5 67.5q1 13 -5 30.5t-18.5 30t-28.5 7.5q-28 -8 -47 -65z" />
    <glyph glyph-name="e" unicode="&#xeb;" horiz-adv-x="346" 
d="M323 82q21 -16 15 -33t-22.5 -29.5t-34.5 -17.5q-85 -26 -161 -7q-74 18 -97 74q-21 55 3 129q21 66 66 106t111 38q57 -2 85.5 -47t-1.5 -96q-23 -38 -65 -54.5t-90 -12.5q3 -39 21 -65q20 -28 59 -30q28 -1 41 5q7 3 11.5 7.5t6.5 8.5t5.5 10.5t5.5 10.5q5 8 19.5 8
t21.5 -5zM149 247q-17 -53 -18 -96q48 3 81.5 25.5t35.5 67.5q1 13 -5 30.5t-18.5 30t-28.5 7.5q-28 -8 -47 -65z" />
    <glyph glyph-name="e" unicode="&#xea;" horiz-adv-x="346" 
d="M323 82q21 -16 15 -33t-22.5 -29.5t-34.5 -17.5q-85 -26 -161 -7q-74 18 -97 74q-21 55 3 129q21 66 66 106t111 38q57 -2 85.5 -47t-1.5 -96q-23 -38 -65 -54.5t-90 -12.5q3 -39 21 -65q20 -28 59 -30q28 -1 41 5q7 3 11.5 7.5t6.5 8.5t5.5 10.5t5.5 10.5q5 8 19.5 8
t21.5 -5zM149 247q-17 -53 -18 -96q48 3 81.5 25.5t35.5 67.5q1 13 -5 30.5t-18.5 30t-28.5 7.5q-28 -8 -47 -65z" />
    <glyph glyph-name="f" unicode="f" horiz-adv-x="312" 
d="M337 446q-15 -60 -53.5 -118t-91.5 -100q37 3 50 4q8 0 21.5 0.5t27 -4.5t15.5 -15q2 -14 -16 -20t-34 -5q-69 2 -73 3q50 -53 56 -123q2 -29 -3 -54t-23.5 -43.5t-48.5 -16.5q-43 2 -75 38t-44 82q-24 93 -26 233q-2 143 22 241q12 51 43.5 88t79.5 49q44 10 85.5 -3
t67.5 -48q51 -67 20 -188zM185 105q-11 49 -42 91v-1q1 -52 1 -80q1 -48 6 -76q10 -62 20 -63q11 0 16.5 23t6.5 40q1 30 -8 66zM143 231q44 32 74 70q39 49 62 136q22 81 6 139q-14 51 -53 71q-15 8 -26 0.5t-22 -25.5q-6 -9 -10.5 -19.5t-7.5 -23t-5.5 -22.5t-4 -24.5
t-2.5 -23t-2.5 -24.5t-2.5 -22q-9 -85 -7 -175q1 -22 1 -57z" />
    <glyph glyph-name="g" unicode="g" horiz-adv-x="526" 
d="M469 301q14 -59 21 -95.5t13.5 -88.5t4.5 -99t-12 -92q-9 -39 -24.5 -74.5t-38.5 -67.5t-57 -53t-74 -25q-36 -4 -70 5t-54 34q-21 29 -21 62.5t17 64.5q11 21 27 37t36.5 26t43.5 13q61 7 101 -17q9 68 -1 155q-35 -42 -83 -64q-44 -20 -97.5 -23t-103.5 18.5t-71 66.5
q-32 67 4 133.5t106 94.5q71 29 155 15q30 -5 49 -15q10 10 32 14q27 8 60 1t37 -26zM259 93q54 59 71 180q-21 30 -61.5 36t-79.5 -8t-62 -40q-35 -37 -38.5 -87.5t28.5 -91.5q21 -26 47 -31t50 6.5t45 35.5zM349 -184q20 42 29 91h-5q-27 9 -37.5 11.5t-31 1t-34.5 -13.5
q-22 -18 -34 -45t-11 -55q1 -27 18 -48.5t42 -13.5q35 11 64 72z" />
    <glyph glyph-name="h" unicode="h" horiz-adv-x="441" 
d="M411 87q-2 -28 3 -46q1 -5 3.5 -12t3 -11t-0.5 -9.5t-5 -11.5q-12 -16 -42 -17.5t-46 7.5q-22 9 -31 23.5t-12 40.5q-4 29 3 72q2 9 6 29.5t6 33t3.5 30.5t-1 33.5t-8.5 29.5q-9 19 -17.5 21.5t-24.5 -11.5q-18 -16 -42 -66q-20 -38 -54 -142q0 -37 -1 -55
q0 -19 -32.5 -26.5t-64 0t-31.5 26.5q6 280 7 321q2 76 7 157q0 6 1 30t2 35.5t3.5 30.5t7.5 33.5t13 26.5q8 14 36.5 14t36.5 -14q8 -12 12.5 -27t6 -34t2.5 -30.5t0.5 -35t-0.5 -29.5q1 -82 0 -157q-1 -58 -3 -141q13 30 27 56q44 78 124 65q49 -8 80.5 -44.5t32.5 -86.5
q0 -16 -2.5 -35t-5.5 -39.5t-3 -34.5z" />
    <glyph glyph-name="i" unicode="i" horiz-adv-x="168" 
d="M134 212q3 -14 4.5 -29.5t1.5 -37v-29.5q1 -15 7 -43.5t7 -43.5q0 -22 -52 -25q-47 -3 -65 18q-9 11 -14 24.5t-4.5 33t0.5 28t4 34.5t4 27q8 54 7 79q0 7 -1.5 14t-4.5 16t-4 14q-1 3 4 5t9 3q39 4 63.5 -21.5t33.5 -66.5zM171 428q3 -9 -1 -14.5t-14 -10.5
q-36 -21 -83 0q-16 6 -17 18q-1 5 -10 27q-3 -2 -4 -3q-6 -7 -7.5 -13.5t1 -13t6.5 -11.5t9 -12t8 -12q2 -6 -8 -7.5t-14 0.5q-48 14 -58 47q-12 42 18 61q43 27 100 9.5t74 -65.5z" />
    <glyph glyph-name="i" unicode="&#xef;" horiz-adv-x="168" 
d="M134 212q3 -14 4.5 -29.5t1.5 -37v-29.5q1 -15 7 -43.5t7 -43.5q0 -22 -52 -25q-47 -3 -65 18q-9 11 -14 24.5t-4.5 33t0.5 28t4 34.5t4 27q8 54 7 79q0 7 -1.5 14t-4.5 16t-4 14q-1 3 4 5t9 3q39 4 63.5 -21.5t33.5 -66.5zM171 428q3 -9 -1 -14.5t-14 -10.5
q-36 -21 -83 0q-16 6 -17 18q-1 5 -10 27q-3 -2 -4 -3q-6 -7 -7.5 -13.5t1 -13t6.5 -11.5t9 -12t8 -12q2 -6 -8 -7.5t-14 0.5q-48 14 -58 47q-12 42 18 61q43 27 100 9.5t74 -65.5z" />
    <glyph glyph-name="i" unicode="&#xee;" horiz-adv-x="168" 
d="M134 212q3 -14 4.5 -29.5t1.5 -37v-29.5q1 -15 7 -43.5t7 -43.5q0 -22 -52 -25q-47 -3 -65 18q-9 11 -14 24.5t-4.5 33t0.5 28t4 34.5t4 27q8 54 7 79q0 7 -1.5 14t-4.5 16t-4 14q-1 3 4 5t9 3q39 4 63.5 -21.5t33.5 -66.5zM171 428q3 -9 -1 -14.5t-14 -10.5
q-36 -21 -83 0q-16 6 -17 18q-1 5 -10 27q-3 -2 -4 -3q-6 -7 -7.5 -13.5t1 -13t6.5 -11.5t9 -12t8 -12q2 -6 -8 -7.5t-14 0.5q-48 14 -58 47q-12 42 18 61q43 27 100 9.5t74 -65.5z" />
    <glyph glyph-name="i" unicode="&#xed;" horiz-adv-x="168" 
d="M134 212q3 -14 4.5 -29.5t1.5 -37v-29.5q1 -15 7 -43.5t7 -43.5q0 -22 -52 -25q-47 -3 -65 18q-9 11 -14 24.5t-4.5 33t0.5 28t4 34.5t4 27q8 54 7 79q0 7 -1.5 14t-4.5 16t-4 14q-1 3 4 5t9 3q39 4 63.5 -21.5t33.5 -66.5zM171 428q3 -9 -1 -14.5t-14 -10.5
q-36 -21 -83 0q-16 6 -17 18q-1 5 -10 27q-3 -2 -4 -3q-6 -7 -7.5 -13.5t1 -13t6.5 -11.5t9 -12t8 -12q2 -6 -8 -7.5t-14 0.5q-48 14 -58 47q-12 42 18 61q43 27 100 9.5t74 -65.5z" />
    <glyph glyph-name="j" unicode="j" horiz-adv-x="197" 
d="M140 301q14 -59 21 -95.5t13.5 -88.5t4.5 -99t-12 -92q-9 -39 -24.5 -74.5t-39 -67.5t-57 -53t-73.5 -25q-36 -4 -70 5t-54 34q-21 29 -21 62.5t17 64.5q16 31 44.5 51.5t61.5 24.5q62 7 102 -17q4 29 5 59.5t-3 67t-6.5 58.5t-11.5 66.5t-12 57t-14 61.5q-3 14 22 22
q41 14 81 1q22 -9 26 -23zM20 -184q20 42 29 91h-5q-27 9 -37.5 11.5t-31 1t-34.5 -13.5q-22 -18 -34 -45t-11 -55q0 -16 7 -32t21.5 -26t31.5 -4q35 11 64 72zM-12 402q-48 14 -58 47q-12 42 18 61q43 27 100 9.5t74 -65.5q4 -6 1 -11.5t-6 -8t-10 -6.5q-36 -20 -83 0
q-16 7 -17 19q-1 5 -11 27l-3 -3q-8 -8 -8 -17t4 -15t11 -15t10 -15q2 -6 -8 -7.5t-14 0.5z" />
    <glyph glyph-name="k" unicode="k" horiz-adv-x="401" 
d="M396 -10q8 -7 4.5 -13t-11.5 -11q-24 -11 -55 -3q-43 12 -62 44t-24 83q-5 52 -35 75q-6 5 -14 8t-12.5 4t-15 1.5t-14.5 0.5q0 -76 -2 -147q0 -19 -32.5 -26.5t-64 0.5t-31.5 26q1 61 1.5 173t1.5 144q1 81 4 160q0 7 0.5 24.5t1 27t2 25.5t4 26.5t7 23.5t11.5 22
q9 14 36.5 14t36.5 -14q7 -11 12 -25t6.5 -32t2.5 -29.5t1 -33.5v-29q2 -96 3 -160v-133q58 10 87 37q22 21 31 50q2 8 3 19.5t4.5 18t13.5 13.5q16 11 38.5 10.5t38.5 -10.5q2 -1 5.5 -3t5.5 -3q7 -5 8 -13q-15 -105 -155 -135q41 -10 69 -36q33 -29 47 -85q0 -3 4 -19
t6 -21.5t6.5 -17t10.5 -18.5t15 -13z" />
    <glyph glyph-name="l" unicode="l" horiz-adv-x="185" 
d="M158 349q1 -158 -3 -317q0 -19 -32.5 -26.5t-64 0.5t-31.5 26q1 37 1.5 80.5t0.5 78v80t1 78.5q1 81 4 160q0 4 0.5 28.5t1.5 34.5t3.5 29t7.5 32.5t13 24.5q9 14 36.5 14t36.5 -14q7 -11 12 -25t6.5 -32t2.5 -29.5t1 -33.5v-29q2 -96 3 -160z" />
    <glyph glyph-name="m" unicode="m" horiz-adv-x="595" 
d="M582 27q6 -19 -17 -27.5t-52 -5t-39 12.5q-25 22 -33 53.5t-4 57.5t11 64t8 60q2 39 -17 60q-19 23 -50 -20q-14 -20 -36 -84v-1q0 -9 -3.5 -44.5t-0.5 -54.5q1 -9 4.5 -19t7 -17t8 -17t6.5 -18q6 -19 -17.5 -27.5t-52 -5t-38.5 12.5q-25 22 -33 53.5t-4.5 57.5t11 64
t8.5 60q1 39 -17 60q-20 23 -50 -20q-10 -13 -17 -29t-14.5 -38.5l-10.5 -31.5q1 -13 1.5 -36.5t0.5 -30.5q1 -15 7 -43.5t6 -43.5q1 -22 -51 -25q-47 -3 -65 18q-9 11 -14 24.5t-4.5 33t0.5 28t4 34.5t4 27q8 54 7 79q0 5 -1 9.5l-2 9t-2 8t-2.5 8.5t-2.5 9q-1 3 4 5t9 3
q61 7 89 -61q1 5 2 6q16 51 35 70q21 20 53.5 23t58.5 -9q46 -19 65 -68q13 37 31 54q20 20 53 23t58 -9q39 -16 58 -51.5t18 -80.5q0 -9 -3 -44.5t-1 -54.5q3 -15 13.5 -39.5t12.5 -31.5z" />
    <glyph glyph-name="n" unicode="n" horiz-adv-x="388" 
d="M375 27q6 -19 -17.5 -27.5t-52 -5t-38.5 12.5q-25 22 -33 53.5t-4.5 57.5t11 64t8.5 60q1 39 -17 60q-20 23 -50 -20q-10 -13 -17 -29t-14.5 -38.5l-10.5 -31.5q1 -13 1.5 -36.5t0.5 -30.5q1 -15 7 -43.5t6 -43.5q1 -22 -51 -25q-47 -3 -65 18q-6 8 -10.5 18t-6 21
t-2.5 21t0.5 23t2.5 21.5t3.5 22.5t2.5 20q8 54 7 79q0 7 -1.5 14t-4.5 16t-4 14q-1 3 4 5t9 3q61 7 89 -61q1 5 2 6q16 51 35 70q21 20 53.5 23t58.5 -9q39 -16 57.5 -51.5t18.5 -80.5q0 -9 -3.5 -44.5t-0.5 -54.5q2 -15 13 -39.5t13 -31.5z" />
    <glyph glyph-name="o" unicode="o" horiz-adv-x="357" 
d="M339 239q5 -32 1 -68t-13 -68t-31.5 -59.5t-55.5 -41.5q-34 -15 -70.5 -15t-68 13.5t-54.5 41t-30 64.5q-12 70 21.5 134t99.5 85q70 22 120 -7q35 -20 39 -53q40 -4 42 -26zM222 239q-2 8 6.5 14t23.5 9q-19 40 -48 42q-29 3 -54 -47q-17 -34 -20 -78t9 -80q1 -4 2.5 -8
t4 -8t4 -7t4.5 -6.5t5 -5.5t5.5 -6t5 -5.5l6 -6t6.5 -5.5q7 2 12 6q18 11 29 31q12 21 13.5 53t-2.5 53t-12 55z" />
    <glyph glyph-name="o" unicode="&#xf6;" horiz-adv-x="357" 
d="M339 239q5 -32 1 -68t-13 -68t-31.5 -59.5t-55.5 -41.5q-34 -15 -70.5 -15t-68 13.5t-54.5 41t-30 64.5q-12 70 21.5 134t99.5 85q70 22 120 -7q35 -20 39 -53q40 -4 42 -26zM222 239q-2 8 6.5 14t23.5 9q-19 40 -48 42q-29 3 -54 -47q-17 -34 -20 -78t9 -80q1 -4 2.5 -8
t4 -8t4 -7t4.5 -6.5t5 -5.5t5.5 -6t5 -5.5l6 -6t6.5 -5.5q7 2 12 6q18 11 29 31q12 21 13.5 53t-2.5 53t-12 55z" />
    <glyph glyph-name="o" unicode="&#xf5;" horiz-adv-x="357" 
d="M339 239q5 -32 1 -68t-13 -68t-31.5 -59.5t-55.5 -41.5q-34 -15 -70.5 -15t-68 13.5t-54.5 41t-30 64.5q-12 70 21.5 134t99.5 85q70 22 120 -7q35 -20 39 -53q40 -4 42 -26zM222 239q-2 8 6.5 14t23.5 9q-19 40 -48 42q-29 3 -54 -47q-17 -34 -20 -78t9 -80q1 -4 2.5 -8
t4 -8t4 -7t4.5 -6.5t5 -5.5t5.5 -6t5 -5.5l6 -6t6.5 -5.5q7 2 12 6q18 11 29 31q12 21 13.5 53t-2.5 53t-12 55z" />
    <glyph glyph-name="o" unicode="&#xf4;" horiz-adv-x="357" 
d="M339 239q5 -32 1 -68t-13 -68t-31.5 -59.5t-55.5 -41.5q-34 -15 -70.5 -15t-68 13.5t-54.5 41t-30 64.5q-12 70 21.5 134t99.5 85q70 22 120 -7q35 -20 39 -53q40 -4 42 -26zM222 239q-2 8 6.5 14t23.5 9q-19 40 -48 42q-29 3 -54 -47q-17 -34 -20 -78t9 -80q1 -4 2.5 -8
t4 -8t4 -7t4.5 -6.5t5 -5.5t5.5 -6t5 -5.5l6 -6t6.5 -5.5q7 2 12 6q18 11 29 31q12 21 13.5 53t-2.5 53t-12 55z" />
    <glyph glyph-name="o" unicode="&#xf3;" horiz-adv-x="357" 
d="M339 239q5 -32 1 -68t-13 -68t-31.5 -59.5t-55.5 -41.5q-34 -15 -70.5 -15t-68 13.5t-54.5 41t-30 64.5q-12 70 21.5 134t99.5 85q70 22 120 -7q35 -20 39 -53q40 -4 42 -26zM222 239q-2 8 6.5 14t23.5 9q-19 40 -48 42q-29 3 -54 -47q-17 -34 -20 -78t9 -80q1 -4 2.5 -8
t4 -8t4 -7t4.5 -6.5t5 -5.5t5.5 -6t5 -5.5l6 -6t6.5 -5.5q7 2 12 6q18 11 29 31q12 21 13.5 53t-2.5 53t-12 55z" />
    <glyph glyph-name="p" unicode="p" horiz-adv-x="517" 
d="M465 287q44 -52 39.5 -116t-52.5 -111q-48 -46 -119.5 -59.5t-133.5 7.5q-26 8 -50 21q2 -93 -3 -318q0 -19 -31.5 -26t-62.5 0.5t-30 25.5q1 52 2.5 110.5t3 129t1.5 110.5q1 52 9 146q2 32 2 38q0 12 -3.5 23t-10 25t-8.5 21q-4 10 12.5 12.5t22.5 -0.5q69 -18 86 -112
q45 68 109 104q52 31 114 23t103 -54zM404 176q16 71 -16 114q-18 23 -43 27t-47.5 -5t-45.5 -26q-58 -43 -96 -128q10 -10 25 -34.5t25 -35.5q38 -39 72 -41q43 -2 79 41t47 88z" />
    <glyph glyph-name="q" unicode="q" horiz-adv-x="489" 
d="M453 242q9 -104 16 -305t8 -226q1 -18 -29.5 -25.5t-62 -0.5t-32.5 26q-10 240 -6 341q-23 -18 -49 -30q-44 -20 -97.5 -23t-103.5 18.5t-71 66.5q-32 67 4 133.5t106 94.5q71 29 155 15q30 -5 49 -15q12 13 43 16t56 -5.5t23 -23.5q-3 -29 -9 -57zM259 93q54 59 71 180
q-21 30 -61.5 36t-79.5 -8t-62 -40q-35 -37 -38.5 -87.5t28.5 -91.5q21 -26 47 -31t50 6.5t45 35.5z" />
    <glyph glyph-name="r" unicode="r" horiz-adv-x="400" 
d="M351 304q17 -10 30 -27t13 -37t-19 -33q-20 -12 -52.5 -12.5t-47.5 18.5q-5 9 -6.5 29.5t-11.5 30.5q-15 15 -39 10q-17 -4 -30.5 -12t-22.5 -21.5t-14.5 -24t-12.5 -29.5q1 -12 2 -25.5t1 -30v-24.5q1 -15 7 -43.5t6 -43.5q1 -22 -51 -25q-47 -3 -65 18
q-7 10 -11.5 22.5t-6.5 23t-1 26.5t2 25t4 27t3 23q8 54 7 79q0 7 -1.5 14t-4.5 16t-4 14q-1 3 4 5t9 2q47 6 75 -35q12 17 29.5 30.5t37 22t37.5 11.5q77 11 134 -24z" />
    <glyph glyph-name="s" unicode="s" horiz-adv-x="310" 
d="M140 213q10 -19 33.5 -33.5t45 -23t41.5 -26.5t26 -43q6 -29 -8.5 -50.5t-41 -32t-54 -15t-51.5 -2.5q-64 7 -99 36q-21 19 -17.5 37.5t27.5 30.5q10 5 29 4.5t28 -8.5q6 -5 16 -20.5t18 -20.5q5 -4 13 -7q3 3 6 7q13 15 8 31.5t-16 28.5t-26 21l-6 3q-18 10 -27 16
t-24 16.5t-22 20t-13.5 22.5t-5.5 28t8 31q20 44 73.5 60.5t105.5 5.5q57 -13 78 -47q12 -21 8 -41.5t-22 -35.5q-8 -9 -44 -8.5t-32 17.5q7 34 -2 52q-5 10 -14.5 18.5t-18.5 7.5q-15 -2 -21.5 -18t-5.5 -34t7 -28z" />
    <glyph glyph-name="t" unicode="t" horiz-adv-x="318" 
d="M282 374q40 -1 40 -18q0 -10 -14 -14t-26 -3q-8 0 -18.5 0.5t-21 0.5h-18.5q2 -159 -2 -314q-1 -19 -33 -26.5t-64 0t-31 26.5q1 61 1.5 174t0.5 141q-54 -1 -81 1q-14 1 -17.5 8.5t10.5 12.5q33 10 89 12q1 70 3 127q1 5 1.5 30t1 35.5t3 30t8 34t13.5 26.5
q8 14 36.5 14t36.5 -14q7 -12 11.5 -27t6.5 -33.5t2.5 -30.5t1 -34.5t0.5 -30.5q1 -64 2 -127q6 0 26.5 -0.5t31.5 -0.5z" />
    <glyph glyph-name="u" unicode="u" horiz-adv-x="443" 
d="M426 15q15 -12 -16 -18q-13 -3 -19 -2q-40 7 -57 31t-29 69q-10 -22 -23 -38q-24 -30 -60.5 -43.5t-77.5 -8.5q-45 5 -77 33.5t-42 73.5q-7 30 -3.5 71.5t8 71.5t-2.5 72q-3 14 22 22q41 14 78 0q21 -8 23 -22q1 -22 2.5 -31.5t-2 -31t-5.5 -30.5t-7.5 -30.5t-7.5 -30.5
q-19 -86 13 -128q13 -18 31.5 -18t35 13t29.5 29t21 31q12 25 20 70q1 7 2.5 22.5t3.5 22.5q-3 45 -1 96q1 18 31 25t59.5 -0.5t28.5 -24.5q-6 -77 -1 -161q3 -58 6 -79q0 -2 0.5 -9.5t1 -10.5t2 -9.5t3 -10.5t4 -8.5t6.5 -7.5z" />
    <glyph glyph-name="u" unicode="&#xfc;" horiz-adv-x="443" 
d="M426 15q15 -12 -16 -18q-13 -3 -19 -2q-40 7 -57 31t-29 69q-10 -22 -23 -38q-24 -30 -60.5 -43.5t-77.5 -8.5q-45 5 -77 33.5t-42 73.5q-7 30 -3.5 71.5t8 71.5t-2.5 72q-3 14 22 22q41 14 78 0q21 -8 23 -22q1 -22 2.5 -31.5t-2 -31t-5.5 -30.5t-7.5 -30.5t-7.5 -30.5
q-19 -86 13 -128q13 -18 31.5 -18t35 13t29.5 29t21 31q12 25 20 70q1 7 2.5 22.5t3.5 22.5q-3 45 -1 96q1 18 31 25t59.5 -0.5t28.5 -24.5q-6 -77 -1 -161q3 -58 6 -79q0 -2 0.5 -9.5t1 -10.5t2 -9.5t3 -10.5t4 -8.5t6.5 -7.5z" />
    <glyph glyph-name="u" unicode="&#xfb;" horiz-adv-x="443" 
d="M426 15q15 -12 -16 -18q-13 -3 -19 -2q-40 7 -57 31t-29 69q-10 -22 -23 -38q-24 -30 -60.5 -43.5t-77.5 -8.5q-45 5 -77 33.5t-42 73.5q-7 30 -3.5 71.5t8 71.5t-2.5 72q-3 14 22 22q41 14 78 0q21 -8 23 -22q1 -22 2.5 -31.5t-2 -31t-5.5 -30.5t-7.5 -30.5t-7.5 -30.5
q-19 -86 13 -128q13 -18 31.5 -18t35 13t29.5 29t21 31q12 25 20 70q1 7 2.5 22.5t3.5 22.5q-3 45 -1 96q1 18 31 25t59.5 -0.5t28.5 -24.5q-6 -77 -1 -161q3 -58 6 -79q0 -2 0.5 -9.5t1 -10.5t2 -9.5t3 -10.5t4 -8.5t6.5 -7.5z" />
    <glyph glyph-name="u" unicode="&#xfa;" horiz-adv-x="443" 
d="M426 15q15 -12 -16 -18q-13 -3 -19 -2q-40 7 -57 31t-29 69q-10 -22 -23 -38q-24 -30 -60.5 -43.5t-77.5 -8.5q-45 5 -77 33.5t-42 73.5q-7 30 -3.5 71.5t8 71.5t-2.5 72q-3 14 22 22q41 14 78 0q21 -8 23 -22q1 -22 2.5 -31.5t-2 -31t-5.5 -30.5t-7.5 -30.5t-7.5 -30.5
q-19 -86 13 -128q13 -18 31.5 -18t35 13t29.5 29t21 31q12 25 20 70q1 7 2.5 22.5t3.5 22.5q-3 45 -1 96q1 18 31 25t59.5 -0.5t28.5 -24.5q-6 -77 -1 -161q3 -58 6 -79q0 -2 0.5 -9.5t1 -10.5t2 -9.5t3 -10.5t4 -8.5t6.5 -7.5z" />
    <glyph glyph-name="v" unicode="v" horiz-adv-x="419" 
d="M333 332q1 12 20.5 16t38 -0.5t17.5 -15.5q-10 -106 -60 -232q-22 -55 -64 -83t-100 -21q-57 6 -86.5 45.5t-33.5 100.5q-2 17 -0.5 38.5t0 46t-5 46t-16.5 38t-33 22.5q-15 4 -11 11.5t17 9.5q42 6 81 -14t59 -58q17 -32 22 -96.5t12 -86.5q7 -24 22 -44q1 -1 10 -9
q16 11 16 12q8 8 16 18q12 18 25 44q43 86 54 212z" />
    <glyph glyph-name="w" unicode="w" horiz-adv-x="557" 
d="M498 344q17 -30 27 -69t11.5 -76.5t-2.5 -74.5q-5 -48 -31.5 -78.5t-72.5 -37.5q-42 -6 -82 7t-65 43l-1 -1q-24 -30 -60.5 -43.5t-77.5 -8.5q-45 5 -77 33.5t-42 73.5q-7 30 -3.5 71.5t8 71.5t-2.5 72q-3 14 22 22q41 14 78 0q21 -8 23 -22q1 -22 2.5 -31.5t-2 -31
t-5.5 -30.5t-7.5 -30.5t-7.5 -30.5q-19 -86 13 -128q13 -18 31.5 -18t35 13t29.5 29t21 31l0.5 1l0.5 1q-12 42 0 87.5t40 83.5q6 9 30 7q13 -3 13 -9q-1 -3 -2 -9q-6 -23 -8.5 -35.5t-5 -32.5t-1.5 -37t5 -34q6 -19 18 -39.5t31 -34.5t39 0q42 28 44 129q0 27 -6 56.5
t-12.5 48t-20.5 53.5q-5 14 19 19q32 6 49 -6q3 -2 5 -5z" />
    <glyph glyph-name="x" unicode="x" horiz-adv-x="356" 
d="M338 37q23 -11 4 -25q-18 -12 -57 -5q-54 11 -110 47q-25 -22 -53.5 -37.5t-60.5 -22.5q-16 -3 -33 3q-9 3 -5 10q9 13 28.5 32t25.5 26q16 19 32 44q-8 9 -15 16q-40 46 -62 97l-2 4q-31 72 -10 95q10 10 30 11t32 -8q11 -8 19 -23t15 -36.5t11 -30.5q11 -23 25 -46
q8 19 25.5 69t30.5 77q9 19 62 19q52 -1 57 -21q1 -2 0 -6q-25 -109 -98 -211l-6 -9q15 -13 28 -22q12 -9 26 -16.5t33.5 -16.5t27.5 -14z" />
    <glyph glyph-name="y" unicode="y" horiz-adv-x="461" 
d="M404 301q14 -59 21 -95.5t13.5 -88.5t4.5 -99t-12 -92q-7 -31 -18 -60t-28 -57t-38 -49t-49.5 -36t-60.5 -18q-36 -4 -70 5t-54 34q-21 29 -21 62.5t17 64.5q11 21 27 37t36.5 26t42.5 13q62 7 102 -17q11 79 -4 184q-12 -35 -31 -58q-24 -30 -60.5 -43.5t-77.5 -8.5
q-45 5 -77 33.5t-42 73.5q-9 36 0 108t2 107q-3 14 22 22q41 14 78 0q21 -8 23 -22q1 -22 2.5 -31.5t-2 -31t-5.5 -30.5t-7.5 -30.5t-7.5 -30.5q-19 -86 13 -128q13 -18 31.5 -18t35 13t29.5 29t21 31q12 25 20 70q1 7 2.5 20t3 24t4.5 20q-3 15 -15 67q-3 14 22 22
q41 14 81 1q22 -9 26 -23zM284 -184q20 42 29 91h-5q-27 9 -37.5 11.5t-31 1t-34.5 -13.5q-22 -18 -34 -45t-11 -55q1 -27 17.5 -48.5t42.5 -13.5q35 11 64 72z" />
    <glyph glyph-name="y" unicode="&#xff;" horiz-adv-x="461" 
d="M404 301q14 -59 21 -95.5t13.5 -88.5t4.5 -99t-12 -92q-7 -31 -18 -60t-28 -57t-38 -49t-49.5 -36t-60.5 -18q-36 -4 -70 5t-54 34q-21 29 -21 62.5t17 64.5q11 21 27 37t36.5 26t42.5 13q62 7 102 -17q11 79 -4 184q-12 -35 -31 -58q-24 -30 -60.5 -43.5t-77.5 -8.5
q-45 5 -77 33.5t-42 73.5q-9 36 0 108t2 107q-3 14 22 22q41 14 78 0q21 -8 23 -22q1 -22 2.5 -31.5t-2 -31t-5.5 -30.5t-7.5 -30.5t-7.5 -30.5q-19 -86 13 -128q13 -18 31.5 -18t35 13t29.5 29t21 31q12 25 20 70q1 7 2.5 20t3 24t4.5 20q-3 15 -15 67q-3 14 22 22
q41 14 81 1q22 -9 26 -23zM284 -184q20 42 29 91h-5q-27 9 -37.5 11.5t-31 1t-34.5 -13.5q-22 -18 -34 -45t-11 -55q1 -27 17.5 -48.5t42.5 -13.5q35 11 64 72z" />
    <glyph glyph-name="y" unicode="&#xfd;" horiz-adv-x="461" 
d="M404 301q14 -59 21 -95.5t13.5 -88.5t4.5 -99t-12 -92q-7 -31 -18 -60t-28 -57t-38 -49t-49.5 -36t-60.5 -18q-36 -4 -70 5t-54 34q-21 29 -21 62.5t17 64.5q11 21 27 37t36.5 26t42.5 13q62 7 102 -17q11 79 -4 184q-12 -35 -31 -58q-24 -30 -60.5 -43.5t-77.5 -8.5
q-45 5 -77 33.5t-42 73.5q-9 36 0 108t2 107q-3 14 22 22q41 14 78 0q21 -8 23 -22q1 -22 2.5 -31.5t-2 -31t-5.5 -30.5t-7.5 -30.5t-7.5 -30.5q-19 -86 13 -128q13 -18 31.5 -18t35 13t29.5 29t21 31q12 25 20 70q1 7 2.5 20t3 24t4.5 20q-3 15 -15 67q-3 14 22 22
q41 14 81 1q22 -9 26 -23zM284 -184q20 42 29 91h-5q-27 9 -37.5 11.5t-31 1t-34.5 -13.5q-22 -18 -34 -45t-11 -55q1 -27 17.5 -48.5t42.5 -13.5q35 11 64 72z" />
    <glyph glyph-name="z" unicode="z" horiz-adv-x="348" 
d="M327 69q16 -7 16 -17.5t-16 -18.5q-12 -6 -25.5 -10.5t-28.5 -7t-26 -4t-29.5 -2t-26.5 -1t-29 -0.5h-28q-8 -4 -21 -6l-6 -2l2 2q-33 -5 -62.5 5.5t-20.5 28.5q44 91 97 161q44 60 69 83q-12 1 -22 2q-4 1 -41 11t-61 9.5t-33 -18.5q-3 -5 -16 -5t-13 7q0 10 2.5 17.5
t11 12t13 7t18.5 4t17 1.5h18q17 1 48.5 -2t57 -2.5t47.5 6.5q13 5 37.5 3.5t35.5 -12.5q15 -14 -3 -25q-1 -7 -5 -16t-8 -15t-11 -15t-9 -12q-36 -52 -55 -83q-32 -54 -52 -93q-2 -3 -4 -9q54 3 80 16q17 9 41.5 9t40.5 -9z" />
    <glyph glyph-name="braceleft" unicode="{" horiz-adv-x="242" 
d="M244 -18q11 -9 6.5 -18t-15.5 -15q-29 -13 -75 -3.5t-72.5 45.5t-18.5 82q1 10 6.5 29.5t7.5 35t-1 30.5q-3 19 -13.5 35t-27.5 19q-11 1 -21 7.5t1 14.5q4 3 9 6q33 69 31 147q0 16 -5 46.5t-5.5 46.5t5.5 46q10 28 33 44.5t54 19.5q16 1 32.5 -1t30.5 -12t13 -28
q-1 -10 -21 -10.5t-25 5.5q-4 3 -3 10q0 1 -1 0q-2 -5 -3 -7q-5 -11 -6 -18q-3 -18 6 -52q2 -8 5.5 -20.5t6 -21.5t5 -20t4 -22t1.5 -22q1 -47 -15 -98q-11 -36 -17 -45q34 -21 47 -58q4 -12 5.5 -24t0 -24t-4 -22.5t-5 -23.5t-3.5 -24q-3 -28 9 -46t39 -34z" />
    <glyph glyph-name="verticalbar" unicode="|" horiz-adv-x="204" 
d="M177 -13q0 -1 1.5 -21t1.5 -30q0 -15 -3 -20.5t-18 -15.5q-17 -11 -41 -10.5t-42 10.5q-15 10 -18.5 15t-5.5 21q-1 3 -4 51q-3 45 -5 89q-6 92 -9 185q-4 116 -3 184q1 3 1 25.5t0.5 28.5t1.5 25t2.5 28t3.5 24.5t5.5 27.5t8.5 24q6 14 40 14.5t39 -14.5
q6 -16 10.5 -33.5t6.5 -39.5t3 -34t2 -40.5t2 -35.5q0 -1 6 -184q3 -92 8 -185q3 -44 6 -89z" />
    <glyph glyph-name="braceright" unicode="}" horiz-adv-x="240" 
d="M222 276q12 -14 3.5 -24.5t-25.5 -13.5q-11 -2 -23 -3q-2 -4 -4 -7q-6 -16 -6 -46q1 -18 6.5 -51t6.5 -45q5 -49 -12 -88.5t-59 -56.5q-21 -8 -45 -8.5t-44 8.5q-17 8 -17 19.5t17 19.5q37 19 33 95q0 6 -1.5 27t-1.5 30.5t1 25.5t5 30q9 33 39 56q-73 28 -69 108
q1 20 7 44.5t13 51t10 44.5q7 40 5 54q0 9 -5 16v1q2 1 5 1h-5h-1q-28 -1 -30 13q-1 0 -1 1.5v1.5q1 5 5 8q17 12 42.5 13t44.5 -8q39 -16 43 -71q4 -42 -8 -128q-5 -43 -1 -63q2 -17 9 -28q4 -6 11 -14q36 2 52 -13z" />
    <glyph glyph-name="nonbreakingspace" unicode="&#xa0;" horiz-adv-x="378" 
 />
    <glyph glyph-name="exclamdown" unicode="&#xa1;" horiz-adv-x="175" 
d="M25 357l-1 4q-2 3 -1 5q0 1 0.5 3.5t1.5 3.5q1 2 6 7h1q2 2 11 6q11 6 35 8q16 1 32 -2q10 -2 19 -6q3 -2 10 -5q4 -5 6 -7q3 -7 3 -8q-1 -5 -3 -8v-1q-1 0 -1 -1q-5 -6 -7 -7q-5 -4 -11 -7q-9 -4 -25 -6q-17 -3 -38 1q-15 3 -25 9q-9 5 -13 11zM149 67q1 -12 2.5 -52
t2.5 -59.5t0.5 -51t-1.5 -57.5q-2 -19 -32.5 -26.5t-61.5 0.5t-33 26q-8 66 -1 220q4 90 5 114l1 11.5t1 14t1 12.5t2 14t3 12.5t4 13t5.5 10.5t7.5 10q10 13 34.5 13t34.5 -13q5 -6 9 -15t6 -16t3.5 -19.5t1.5 -17.5t0.5 -19.5t0.5 -17.5q1 -14 2 -50.5t2 -56.5z" />
    <glyph glyph-name="cent" unicode="&#xa2;" horiz-adv-x="431" 
d="M269 153q3 18 27 23.5t49 -0.5t35 -16q16 -17 14.5 -40.5t-12 -44t-25.5 -35.5q-35 -33 -94 -40q-3 -25 -13 -38q-12 -16 -49 -16q-41 -1 -49 16q-11 24 -2 50q-37 14 -65.5 40.5t-44.5 62.5t-19 78q-5 66 23 158q23 79 69 112q21 15 48 24v1q-5 6 -4 20q1 12 7 19
q14 15 45 17q35 2 53 -12q17 -12 21 -37l-1 -1v-1q58 -11 93 -46q29 -29 34.5 -72.5t-16 -79.5t-64.5 -45q-10 -4 -32.5 -2.5t-27.5 13.5q-2 3 -2.5 6.5t-1 5.5t1 6.5t2 5.5t3 6.5t3.5 6.5q12 25 13 49q1 56 -35 83q-15 10 -22 8t-21 -16q-28 -30 -46 -100q-41 -164 27 -239
q11 -12 23 -20q1 -1 8 -3.5t9 -3.5q2 1 3.5 2.5t3.5 2t3.5 2t3.5 2.5q17 16 23 40q2 8 1 23.5t0 24.5z" />
    <glyph glyph-name="sterling" unicode="&#xa3;" horiz-adv-x="464" 
d="M424 51q16 -8 16 -19t-16 -19q-81 -38 -199 -15q-14 3 -34 9q-25 -26 -65 -33.5t-73 5.5q-31 11 -36.5 37t24.5 43q22 12 54 13q13 45 -4 112h-2l-3 1q-30 5 -30 17q1 12 26 16q-3 10 -9.5 29t-10 30.5t-7.5 27.5t-6.5 30t-2.5 27q-4 76 35 126q42 55 131 66q31 3 59 3.5
t59.5 -5t54.5 -18t39.5 -36t19.5 -57.5q7 -70 -45.5 -122.5t-122.5 -47.5q-7 1 -10.5 4.5t2.5 8.5q48 24 74 51t30 72q3 46 -20 80q-13 20 -31.5 26t-47.5 4q-77 -4 -98 -70q-16 -51 7 -140q4 -15 13.5 -45t10.5 -34h32q7 0 15.5 -1t19 -3.5t17.5 -8t7 -13.5
q0 -15 -20 -20.5t-39 -5.5h-18q16 -72 -1 -122q1 0 11 -2.5t12.5 -3t11.5 -2t12.5 -2t11.5 -1.5t12.5 -1t11.5 0.5t12.5 1.5t11.5 2q1 2 2 5q8 14 35 14.5t40 -6.5q11 -3 21 -8z" />
    <glyph glyph-name="currency" unicode="&#xa4;" horiz-adv-x="382" 
d="M359 117q4 -9 -3 -15q-5 -6 -16 -10q-28 -9 -60 -1q-21 5 -36 19q-6 6 -8 10q-36 -8 -73 -4q-3 -3 -10 -8q-18 -13 -45 -17q-18 -2 -37 2q-18 5 -22 13q-3 7 -1 13q1 2 5.5 6.5t11.5 9.5q9 7 22 11q-33 26 -47.5 66t-1.5 82q10 32 35 55q-27 11 -43 36q-20 33 -5 50
q10 12 32 14t35 -6q19 -9 46 -43q11 -15 12 -15q19 2 37 -2q16 8 47 6q10 -1 20 -3q8 13 18 19q15 9 37 9q26 0 37 -9q21 -18 4 -41q-8 -12 -21 -18q-1 0 -2 -0.5l-1 -0.5q48 -52 28 -120q-13 -44 -50 -73q6 -1 10 -3q15 -5 27 -15q1 -1 6 -4.5t8 -6.5t4 -6zM221 215
q15 30 8 64q-4 27 -25 50q-2 3 -6.5 8t-6.5 6q-28 -28 -31 -80q-1 -34 14 -61q7 -14 16 -22q1 2 6 6t7.5 6.5l6 6t6 7.5t5.5 9z" />
    <glyph glyph-name="yen" unicode="&#xa5;" horiz-adv-x="622" 
d="M572 140q-20 0 -41 1q-1 -1 -1 -3q-1 -1 -1 -2q10 1 15 1q44 5 49 -12q2 -7 -3 -11.5t-11.5 -6.5t-13.5 -3q-39 -4 -52 -5q-3 -6 -4 -6q-16 -30 -40 -52.5t-54.5 -36t-63.5 -16.5q-28 -2 -53.5 2.5t-47 21.5t-25.5 44q-1 8 15.5 8.5t20.5 -3.5q37 -38 64 -36q23 1 50 34
q16 20 27 47q-16 5 -28 11q-7 5 -3.5 8t10.5 4q13 3 31 4q2 7 4 15q-18 2 -33 4q-14 1 -14 8.5t14 8.5q18 1 39 2q3 13 5 26q3 17 5 37q-7 -6 -14 -11q-51 -34 -121.5 -37.5t-122.5 29.5q-18 12 -28.5 28.5t-13.5 32t-1 38t5.5 37.5t9.5 39t8 36q8 18 3 57.5t-33 21.5
q-26 -17 -24.5 -51t25.5 -52q8 -5 -7 -8q-12 -3 -17 0q-32 13 -45 41.5t-1 56.5t46 40q53 19 102.5 -6.5t61.5 -81.5q3 -11 2.5 -28.5t-2.5 -29t-5 -29t-3 -29.5q-2 -9 -0.5 -23.5t4 -28t10.5 -23.5t21 -11q32 -1 92 49q27 22 38 46q1 3 9 34q-4 39 -11 83q-1 6 -3.5 15
t-4 16t-2.5 15t0.5 16t4.5 15q9 19 49.5 19.5t53.5 -13.5q12 -13 16 -22.5t9 -31.5q7 -32 10 -59q7 -54 5 -120q-3 -74 -18 -130q18 0 32 -1q37 -1 37 -16q0 -17 -37 -17z" />
    <glyph glyph-name="section" unicode="&#xa7;" horiz-adv-x="365" 
d="M232 111q60 -22 72 -67q7 -23 -2 -40.5t-28.5 -27t-40 -14.5t-41.5 -5q-40 0 -89.5 19.5t-17.5 53.5q11 11 32 12t32 -8q23 -19 29 -23q-1 2 2 11.5t3 13.5q-3 15 -15 28q-15 14 -53 26t-52 21q-34 24 -37 56t22 55.5t64 22.5q14 0 19 -7q1 -3 -2 -6q-9 -7 -15 -18
t-7.5 -23t2.5 -23q19 7 49 0q2 2 2 3q6 19 -1 45q-5 15 -16 31.5t-19.5 25.5t-25 25t-28 29.5t-24 32t-18.5 35t-6 37t8 40.5q20 48 70 70.5t105 16.5q49 -5 88 -34.5t50 -75.5q12 -50 -16 -95t-76 -63q-1 0 -6 -1q41 -44 45 -88q8 -65 -58 -91zM170 367q13 -15 46 -48
q21 30 31 60t3 63t-36 57q-15 12 -26 15q-2 0 -4 -1q-23 -9 -37 -37q-25 -50 23 -109z" />
    <glyph glyph-name="copyright" unicode="&#xa9;" horiz-adv-x="610" 
d="M368 222q19 6 43 1.5t28 -20.5q5 -21 -8 -37.5t-36 -25.5t-46 -13.5t-40 -3.5q-48 1 -83.5 23t-43.5 65q-8 42 8.5 82t53.5 58q15 7 33.5 11t37 3t35.5 -9t26 -23q6 -9 -11 -11q-25 -4 -35 3q-17 10 -28 -11.5t-13 -42.5q-4 -49 12 -77q3 -3 12 -13q4 3 7 7q21 21 30 26
l6 3q5 3 11 4h1v1zM320 174h1h-1zM480 533q66 -75 95 -170t1 -184q-17 -56 -55 -99t-89 -66.5t-111 -26.5q-86 -4 -164.5 34.5t-113.5 111.5q-36 76 -20.5 159.5t73.5 144.5q51 54 123.5 76.5t138.5 1.5q-5 7 -10 13q-11 13 9.5 23t35.5 11l15 1q41 3 60 -9q16 -10 12 -21z
M366 67q49 35 74 93.5t22 120.5q-5 97 -75 197q-10 -1 -13 1q-53 22 -99.5 1.5t-79 -62.5t-46.5 -92q-17 -58 -4 -122t57 -108q24 -24 50.5 -37.5t56.5 -12.5t57 21z" />
    <glyph glyph-name="softhyphen" unicode="&#xad;" 
 />
    <glyph glyph-name="registered" unicode="&#xae;" horiz-adv-x="513" 
d="M411 518q57 -44 76 -113.5t-9 -134.5q-25 -60 -81.5 -96t-124.5 -42q-73 -6 -140 19.5t-99 82.5q-23 40 -16 82.5t31 78.5t59 62q41 30 90.5 42.5t95.5 1.5q-2 9 8 16t23 11q18 6 44.5 4t42.5 -14zM367 305q11 45 -3 90t-47 79q-7 -1 -10 0q-57 14 -110.5 -21.5
t-75.5 -91.5q-24 -58 9 -112.5t95 -65.5q43 -8 82 26.5t56 80.5q-5 -3 -10 -4q-33 -8 -89 7q7 -28 10 -49l-0.5 0.5t-1.5 0.5q1 -11 -19 -17q-12 -6 -36 -2.5t-28 18.5q-6 25 -10 77l-2 16t-2 24q-2 2 0 6h1q2 14 9 23q7 7 21 6q46 29 93 5q33 -17 28 -48q-3 -15 -18 -29
q1 0 7.5 -1t10.5 -2q1 0 8 -1t10 -1.5t8 -2.5t8.5 -4.5t5.5 -6.5zM250 345q9 11 6 23q0 7 -5 11q-6 8 -9 0q-2 0 -6 -2q8 -11 14 -32z" />
    <glyph glyph-name="mu" unicode="&#xb5;" horiz-adv-x="404" 
d="M380 226q1 -1 3.5 -5.5t3.5 -7t2 -6.5t1 -7t-2 -6q-4 -8 -16.5 -10t-22.5 0q-23 4 -41 15q-7 -7 -14 -13q-26 -23 -63.5 -32t-72.5 -2q13 -79 38 -170q2 -6 -5 -12t-14 -8q-35 -15 -78 -5q-26 6 -31 25q-35 117 -41 254q-3 57 3 127q8 87 30 124q8 12 38.5 13t35.5 -13
q4 -14 6.5 -31.5t2.5 -29.5t-0.5 -33.5t-0.5 -29.5q0 -53 6 -127q1 -18 4 -42q30 -17 52 0q37 27 42 86q4 41 -8.5 122t-8.5 123q2 18 33 25t60.5 -1t27.5 -24q-2 -33 2 -87.5t5.5 -88t-10.5 -83.5q5 -2 9 -5q10 -7 24 -35z" />
    <glyph glyph-name="paragraph" unicode="&#xb6;" horiz-adv-x="496" 
d="M463 137q0 -11 3 -44.5t3 -46.5t-4 -44q-5 -18 -28.5 -23t-47.5 -2q-5 0 -12.5 2.5t-16.5 6.5t-13 9v0.5v0.5q-4 4 -3 9q-4 18 -5.5 38t-1 49t0.5 38q-3 85 -3 135v67.5v67.5v19.5t0.5 24t1 20.5t2.5 23.5t5 20.5q-24 1 -51.5 0t-51.5 -4.5t-47 -15t-39 -31.5
q-20 -24 -23 -54t15 -55q16 -19 38.5 -20.5t43.5 5.5v4.5t1 5.5q0 8 1 43t3.5 57t9.5 42q2 6 17.5 6t18.5 -6q6 -16 9 -33t5.5 -43.5t3.5 -33.5q3 -21 6 -46q5 -3 9 -6q9 -9 7 -17.5t-12 -14.5l2 -30q9 -137 8 -234q0 -6 -12 -13q-21 -14 -46 -7.5t-28 33.5q-2 22 -2.5 47
t-1 57t-0.5 48q-1 42 -1 79q-93 -12 -160 25q-44 25 -57.5 67.5t11.5 87.5q43 75 177 97q56 9 123 4q44 -3 63 -9q27 1 35 -11q6 -9 10.5 -20.5t7 -20t4.5 -24.5t2.5 -22t2 -24.5t1.5 -20.5q2 -19 3.5 -40.5t3 -47.5t2.5 -41q4 -57 7 -134z" />
    <glyph glyph-name="questiondown" unicode="&#xbf;" horiz-adv-x="517" 
d="M239 371h-1q-4 8 0 15q6 9 16 12q10 5 21 6q12 3 24 3q25 0 44 -9q10 -3 17 -12q4 -7 0 -15h-1q-4 -7 -11 -10q-8 -5 -18 -7q-14 -3 -31 -3q-19 -1 -38 5q-9 3 -16 8l-2 2t-2 2.5t-2 2.5zM463 -15q9 -34 -2 -65.5t-35.5 -55t-54 -40t-60.5 -24.5q-42 -11 -83 -11
t-81.5 17t-67.5 50t-28 74t16 75.5t47 65.5q11 11 38 37t39.5 40.5t29.5 39t22 50t1 54.5q-2 16 25.5 23.5t58 2.5t35.5 -19q14 -36 5.5 -70t-27.5 -58t-49 -50t-57.5 -47t-53.5 -48.5t-37 -54.5q-11 -24 -7.5 -50.5t14.5 -48.5t34.5 -35.5t51.5 -11.5q57 5 95.5 53
t13.5 100q-10 18 27 29q46 13 76 -5q11 -6 14 -17z" />
    <glyph glyph-name="Agrave" unicode="&#xc0;" horiz-adv-x="819" 
d="M796 230q-55 -6 -108 -1l3 -30q0 -1 2.5 -24.5t3 -29t3.5 -27.5t6 -30.5t8 -26.5t11.5 -27t15 -21t20 -19.5t24.5 -12.5q14 -5 15 -15t-11 -17q-27 -17 -72 -7q-105 25 -136 134q-16 57 -26 187q-19 8 -53.5 24.5t-48.5 22.5q-14 -94 -29 -150q-30 -110 -88 -160
q-37 -31 -88.5 -41t-98.5 1q-47 10 -81.5 38.5t-51.5 66t-16 82.5t22 87q28 57 84 92.5t118 47t126 5.5q22 -2 45 -7q15 59 27 128q2 12 7.5 44t8.5 48.5t9 42t14 45.5q-26 2 -59 -30q-2 -2 -9.5 -2.5t-14 1t-4.5 4.5q6 21 24 33t41 14.5t45 0.5t40 -9q102 -36 132 -188
q15 -77 28 -232q47 -9 88 -5q46 5 54 -13q5 -11 -6 -16.5t-24 -7.5zM379 309q4 12 7 26q-83 22 -160 -5t-113 -102q-18 -35 -17.5 -78t18.5 -78q15 -28 42 -50t53 -18q62 8 109 115q24 54 61 190zM460 353q22 -8 91 -37v2v4q-4 35 -8 119t-10 129q-7 54 -34 86
q0 -29 -10 -112q-6 -44 -20 -131q-4 -22 -9 -60zM389 830q-14 13 10.5 23t51.5 -2q38 -15 150 -78q16 -10 14 -19t-19 -16q-42 -15 -78 7q-9 5 -32 19t-35 21.5t-30 20.5t-32 24z" />
    <glyph glyph-name="Adieresis" unicode="&#xc4;" horiz-adv-x="819" 
d="M796 230q-55 -6 -108 -1l3 -30q0 -1 2.5 -24.5t3 -29t3.5 -27.5t6 -30.5t8 -26.5t11.5 -27t15 -21t20 -19.5t24.5 -12.5q14 -5 15 -15t-11 -17q-27 -17 -72 -7q-105 25 -136 134q-16 57 -26 187q-19 8 -53.5 24.5t-48.5 22.5q-14 -94 -29 -150q-30 -110 -88 -160
q-37 -31 -88.5 -41t-98.5 1q-47 10 -81.5 38.5t-51.5 66t-16 82.5t22 87.5t58.5 74t82.5 47.5t92.5 22t94.5 1q22 -2 45 -7q15 59 27 128q2 13 6 35.5t6.5 38t6.5 35t9 37.5t11 34q-26 2 -59 -30q-2 -2 -9.5 -2.5t-14 1t-4.5 4.5q6 21 24 33t41 14.5t45 0.5t40 -9
q102 -36 132 -188q15 -77 28 -232q47 -9 88 -5q46 5 54 -13q5 -11 -6 -16.5t-24 -7.5zM379 309q4 12 7 26q-83 22 -160 -5t-113 -102q-18 -35 -17.5 -78t18.5 -78q15 -28 42 -50t53 -18q62 8 109 115q24 54 61 190zM460 353q22 -8 91 -37v2v4q-4 35 -8 119t-10 129
q-7 54 -34 86q0 -29 -10 -112q-6 -44 -20 -131q-4 -22 -9 -60zM439 779q-26 0 -44.5 8t-18.5 20t18.5 20t44.5 8q17 0 31.5 -4t23 -10t8.5 -14q0 -12 -18.5 -20t-44.5 -8zM607.5 779q-26.5 0 -45 8t-18.5 20t18.5 20t45 8t45 -8t18.5 -20t-18.5 -20t-45 -8z" />
    <glyph glyph-name="AE" unicode="&#xc6;" horiz-adv-x="1056" 
d="M894 433q93 81 67 156q-7 22 -23 36.5t-35 8.5q-35 -10 -73 -48q-32 -32 -50 -75.5t-19 -89.5q0 -54 25 -91q3 -4 7.5 -8t9.5 -8t8 -7q34 22 86 8q9 -2 18 -7.5t13 -14t-8 -16.5q-21 -16 -48 -24q-67 -28 -100 -102.5t-1 -137.5q14 -28 37.5 -36.5t47 -1.5t47.5 25
q55 40 81 130q2 8 20 8.5t19 -8.5q5 -48 -23.5 -93.5t-72.5 -72.5q-37 -21 -83 -28t-89 3q-19 -1 -38 3q-105 25 -136 134q-16 57 -26 187q-19 8 -53.5 24.5t-48.5 22.5q-14 -94 -29 -150q-30 -110 -88 -160q-37 -31 -88.5 -41t-98.5 1q-47 10 -81.5 38.5t-51.5 66t-16 82.5
t22 87q28 57 84 92.5t118 47t126 5.5q22 -2 45 -7q15 59 27 128q2 12 7.5 44t8.5 48.5t9 42t14 45.5q-26 2 -59 -30q-2 -2 -9.5 -2.5t-14 1t-4.5 4.5q6 21 24 33t41 14.5t45 0.5t40 -9q102 -36 132 -188v-1.5v-1.5q28 68 87 116q37 30 88 48t106.5 12t86.5 -45
q21 -24 24.5 -58.5t-10.5 -63.5q-27 -63 -113 -91q-12 -4 -29 3q-7 5 -2 11zM379 309q4 12 7 26q-83 22 -160 -5t-113 -102q-18 -35 -17.5 -78t18.5 -78q15 -28 42 -50t53 -18q62 8 109 115q24 54 61 190zM460 353q22 -8 91 -37v2v4q-4 35 -8 119t-10 129q-7 54 -34 86
q0 -29 -10 -112q-6 -44 -20 -131q-4 -22 -9 -60zM689 220q3 3 7 8q-4 1 -8 1q0 -1 0.5 -2.5t0.5 -3.5v-3zM684 272q18 -3 35 -5q-21 12 -37 27q1 -3 1.5 -10.5t0.5 -11.5z" />
    <glyph glyph-name="Ccedilla" unicode="&#xc7;" horiz-adv-x="591" 
d="M583 260q15 -35 -6 -109q-17 -61 -38 -91q-27 -39 -70.5 -66t-92.5 -38v-1q-2 -33 -25.5 -58.5t-55.5 -36.5t-67 -7.5t-58 22.5q-14 12 15 16q16 2 22 0q28 -7 47 10t28 47q-71 5 -128 40q-74 45 -111 144q-33 88 -29.5 186t43.5 183q30 62 82.5 109t118 67.5t136.5 -1.5
q26 -8 48 -25t35 -42.5t8 -53.5q-6 -37 -38.5 -60t-71.5 -21q-13 0 -17 7q-2 4 8 8q22 7 31 30.5t4.5 49t-17.5 41.5q-49 54 -123 -7q-67 -55 -99 -147t-23.5 -188.5t51.5 -171.5q16 -30 38.5 -52t48.5 -35t57 -12t63 17q31 16 59.5 46t45.5 62q20 38 27 76q1 7 2 16t2 15.5
t3 15t5 15.5q3 8 21 8t21 -8z" />
    <glyph glyph-name="Egrave" unicode="&#xc8;" horiz-adv-x="435" 
d="M273 433q93 81 67 156q-8 22 -23.5 36.5t-35.5 8.5q-35 -10 -72 -48q-21 -21 -36.5 -48t-24 -57t-8.5 -60q0 -54 25 -91q3 -5 12.5 -12.5t12.5 -10.5q33 22 86 8q9 -2 18 -7.5t12.5 -14t-7.5 -16.5q-22 -16 -49 -24q-66 -28 -99 -102.5t-1 -137.5q14 -28 37 -36.5
t47 -1.5t48 25q55 40 80 130q3 8 20.5 8.5t18.5 -8.5q6 -48 -22.5 -93.5t-73.5 -72.5q-50 -29 -112.5 -31t-112.5 29q-31 20 -46.5 54.5t-14.5 71t14 71.5q22 60 78 102q-66 29 -85 92q-22 70 6.5 143t88.5 121q37 30 88.5 48t106.5 12t87 -45q20 -24 23.5 -58.5t-9.5 -63.5
q-27 -63 -113 -91q-13 -4 -29 3q-8 5 -2 11zM129 830q-15 13 10 23t52 -2q38 -15 150 -78q15 -10 13 -19t-19 -16q-42 -15 -77 7q-9 5 -32 19t-35.5 21.5t-30.5 20.5t-31 24z" />
    <glyph glyph-name="Eacute" unicode="&#xc9;" horiz-adv-x="435" 
d="M273 433q93 81 67 156q-8 22 -23.5 36.5t-35.5 8.5q-35 -10 -72 -48q-21 -21 -36.5 -48t-24 -57t-8.5 -60q0 -54 25 -91q3 -5 12.5 -12.5t12.5 -10.5q33 22 86 8q9 -2 18 -7.5t12.5 -14t-7.5 -16.5q-22 -16 -49 -24q-66 -28 -99 -102.5t-1 -137.5q14 -28 37 -36.5
t47 -1.5t48 25q55 40 80 130q3 8 20.5 8.5t18.5 -8.5q6 -48 -22.5 -93.5t-73.5 -72.5q-50 -29 -112.5 -31t-112.5 29q-31 20 -46.5 54.5t-14.5 71t14 71.5q22 60 78 102q-66 29 -85 92q-22 70 6.5 143t88.5 121q37 30 88.5 48t106.5 12t87 -45q20 -24 23.5 -58.5t-9.5 -63.5
q-27 -63 -113 -91q-13 -4 -29 3q-8 5 -2 11zM209 738q-14 -5 -41 4q-20 6 -7 17q23 18 51 33.5t71.5 36t55.5 26.5q13 6 31.5 6t31.5 -6q11 -6 11 -14t-11 -14q-13 -6 -46 -23t-50.5 -25.5t-45.5 -20.5t-51 -20z" />
    <glyph glyph-name="Igrave" unicode="&#xcc;" horiz-adv-x="291" 
d="M255 552q9 -45 9 -152q0 -101 -4 -169q-7 -111 -15 -157q-15 -81 -79 -104q-49 -19 -86 0q-17 8 -16.5 18.5t16.5 19.5q30 16 39 87q6 44 12 117q7 89 14 232q1 9 2.5 27.5t3 33.5t2 34t-1 34t-7 30t-14.5 26q-10 11 -22 12t-22.5 -6t-19 -17t-13.5 -22q-4 -9 -6 -18
t-2 -19t0.5 -17t2 -19.5t2.5 -18.5q0 -6 -12 -6.5t-15 3.5q-27 31 -26 65t25.5 63t60.5 38q32 7 60.5 1.5t51 -20.5t38.5 -40t22 -56zM32 824q-14 13 10.5 22.5t51.5 -1.5q38 -16 150 -79q16 -9 14 -18.5t-20 -15.5q-42 -15 -77 6q-9 6 -32 19.5t-35.5 21.5t-30 20.5
t-31.5 24.5z" />
    <glyph glyph-name="Ntilde" unicode="&#xd1;" horiz-adv-x="734" 
d="M726 -12q12 -13 -8.5 -23t-36.5 -12q-54 -7 -79 20q-17 18 -26 41t-11 51.5t-1.5 50t3.5 55.5t3 48q7 180 19 314q0 8 3 28.5t4.5 33.5t-0.5 30.5t-8 28.5q-4 6 -9 8t-10.5 0.5t-11.5 -5t-13 -10.5t-12.5 -13.5t-12.5 -15.5t-11.5 -15.5t-10 -15.5t-7.5 -12.5t-5 -8.5
q-35 -57 -59 -120q-1 -1 -27 -78q15 -123 -4 -221q-20 -95 -65 -138q-54 -52 -155 -45q-17 1 -34.5 10t-10.5 25q12 23 79 19q-14 1 -14 2t4 3q9 4 13 8q12 10 23 29q16 26 25 63q16 62 16 143q0 43 -8 158q0 6 -1 20.5t-1.5 21.5t-2 20t-3 22t-4.5 20t-6 20
q-10 29 -31.5 49t-48.5 22q-30 2 -56 -18t-40 -50q-16 -29 -14 -60.5t14.5 -59t38 -47.5t57.5 -25q15 -3 8 -10q-5 -3 -12 -3q-72 -2 -125.5 51t-38.5 124q13 63 64.5 98t117.5 32q74 -3 125 -47t68 -117q4 -13 7 -30q2 4 2 5q30 78 77 147q15 23 27 37t31.5 27t41.5 16
q31 5 57.5 -6.5t41.5 -38.5q8 -15 14 -37t7.5 -32.5t5 -44t3.5 -35.5q7 -72 9 -188q0 -31 -7 -186q-1 -17 -0.5 -35.5t3 -35t10 -33t19.5 -29.5zM325 731q-18 5 -28 17.5t-2 28.5q9 18 34 23t49 1q25 -3 55 -19q1 -1 3 -1.5t5 -1.5t4 -2l7 8q29 39 85 17q19 -7 13 -21
q-15 -29 -46.5 -42t-67.5 -10q-30 3 -64 24q-1 1 -8 6q-7 -13 -6 -17q2 -7 -5 -10t-15 -2.5t-13 1.5z" />
    <glyph glyph-name="Ograve" unicode="&#xd2;" horiz-adv-x="604" 
d="M437 656q56 -24 92 -72.5t49 -108t12 -120t-15 -117.5q-30 -125 -99 -193q-44 -44 -105 -62.5t-125 -10.5q-43 6 -80 26t-63.5 49.5t-46.5 67.5t-30.5 79.5t-13.5 86t2.5 87t20 82t36 71.5t53 55t69.5 32q14 22 35 37q44 30 102.5 32t106.5 -21zM456 283q14 91 -2 181
t-72 145q-21 20 -43.5 29t-47.5 4t-45 -28q20 0 40 -2q11 -2 21 -5t19.5 -11t4.5 -19q-8 -15 -33 -19t-46 -1l1 -1l-9 -2q-9 -5 -16 -11q-3 -3 -7 -6q2 -29 16 -56q3 -6 -7 -8q-15 -2 -22 2q-11 10 -18 22q-17 -28 -30 -65q-30 -86 -17 -185q12 -84 55 -149q51 -76 94 -71
q59 8 110 97q41 69 54 159zM194 824q-15 13 10 23t52 -2q38 -15 150 -78q16 -10 13.5 -19t-19.5 -16q-42 -15 -77 7q-9 5 -32 19t-35.5 21.5t-30 20.5t-31.5 24z" />
    <glyph glyph-name="Oslash" unicode="&#xd8;" horiz-adv-x="608" 
d="M525 590q35 -44 51.5 -107.5t15.5 -125t-16 -119.5q-30 -125 -99 -193q-44 -44 -105 -62.5t-125 -10.5q-45 7 -85 29q-31 -44 -62 -73q-6 -7 -31 -6.5t-23 12.5q10 50 51 121q-41 47 -63.5 114t-21.5 136t19 132t61 109.5t102 61.5q14 22 35 37q44 30 102.5 32t106.5 -21
q7 -3 14 -7q22 38 43 52q4 3 11 5t16 3.5t18.5 1.5t17 -1.5t13 -6.5t6.5 -11q1 -11 -5 -25.5t-13 -26t-18 -26.5t-15 -22q-1 -1 -1 -2zM144 247q6 -42 20 -81q81 137 91 153q13 23 119 197l18 30l18 30q-12 18 -27 33q-21 20 -43.5 29t-47.5 4t-45 -28q20 0 40 -2
q11 -2 21 -5t19.5 -11t4.5 -19q-8 -15 -33 -19t-47 -1l2 -1l-9 -2q-9 -5 -16 -11q-3 -3 -7 -6q2 -29 16 -56q3 -6 -7 -8q-15 -2 -22 2q-11 10 -18 22q-17 -28 -30 -65q-30 -86 -17 -185zM457 283q15 101 -4 188q-73 -121 -100 -164q-17 -28 -39 -63.5l-44 -71t-39 -63.5
q-4 -7 -18 -30q43 -57 80 -52q59 8 110 97q41 69 54 159z" />
    <glyph glyph-name="Ugrave" unicode="&#xd9;" horiz-adv-x="576" 
d="M537 651q13 -16 15 -39t0 -43q-2 -32 -5 -89q-3 -63 -9 -179q-3 -62 -9 -178q-1 -15 -2.5 -44.5t-2.5 -44.5l-2 -38q-2 -15 -5.5 -21t-16.5 -16q-14 -12 -43.5 -12.5t-44.5 12.5q-12 11 -15 16.5t-3 20.5l2 38v3q-10 -11 -20 -20q-53 -49 -137.5 -54.5t-137.5 45.5
q-25 27 -34 64.5t-2.5 80.5t15.5 74.5t24 72.5q9 24 30.5 76t31.5 79q1 5 9 25.5t11 30t8 28.5t5.5 31.5t-2.5 27.5t-10 27q-13 20 -35 21t-41.5 -11t-33.5 -28q-25 -31 -32 -69q-8 -39 6.5 -80t45.5 -67q5 -5 -7 -6q-10 -2 -14 1q-78 59 -68 142q3 24 13.5 46.5t27 41.5
t38.5 30q45 21 87 16.5t74 -36.5t38 -80q3 -27 -1.5 -59t-10 -51.5t-17.5 -56.5q-5 -14 -14 -40t-14.5 -42.5t-12 -39.5t-11.5 -43q-24 -108 -1 -159q9 -21 22 -30q2 -2 12 -8q1 0 7 -1q15 2 40 16q67 42 100 123q11 28 20 66q1 9 1.5 20t1 20t1 20t0.5 20q2 30 5 89.5
t4 89.5q3 57 6 89q0 3 0.5 12.5t1 13t1 11.5t2 12.5t4 11t5.5 11.5t8 10q15 16 46 16.5t45 -16.5zM171 771q-15 13 10 22.5t52 -1.5q38 -16 149 -78q16 -10 14 -19.5t-19 -15.5q-42 -15 -77 7q-9 5 -32 19t-35.5 21.5t-30.5 20t-31 24.5z" />
    <glyph glyph-name="germandbls" unicode="&#xdf;" horiz-adv-x="522" 
d="M468 304q35 -52 38 -118t-29 -120q-33 -55 -96 -81t-131 -19q-66 6 -111 40q-2 -43 -12 -74q-5 -13 -35 -12.5t-36 12.5q-7 16 -12 32.5t-8 40t-3.5 33.5t-1.5 41.5t-2 34.5q-3 86 -1 184v45.5t0.5 49t2 47t5 49t10 44.5t16.5 44q27 57 89 80t130 13q66 -10 112 -54
t51 -109q6 -79 -60 -139q54 -20 84 -64zM358 89q35 65 12 145q-11 39 -35 66q-3 4 -12.5 11t-12.5 11h-1q-51 -18 -89 1q-17 8 -17 20t17 20q1 1 9 4q55 25 77.5 82t-4.5 114q-11 21 -28.5 39t-36.5 16q-10 0 -19 -5.5t-16 -13t-13.5 -17.5t-10.5 -18.5t-8 -17.5
q-2 -8 -4.5 -16t-4 -15t-3 -16.5t-2.5 -15.5t-2 -16.5t-1.5 -15.5t-1 -16.5t-1.5 -16.5q-6 -85 -9 -164q-2 -64 -2 -139h6q35 0 51 -17q5 -5 20 -27.5t29.5 -35.5t30.5 -14q22 -2 45 20.5t37 47.5z" />
    <glyph glyph-name="agrave" unicode="&#xe0;" horiz-adv-x="577" 
d="M550 61q13 2 24 -5q3 -4 -1 -8q-36 -28 -107 -10q-50 13 -83 48q-36 -44 -85 -67q-44 -20 -97.5 -22.5t-103.5 18.5t-71 67q-32 67 4 133t106 95q71 29 155 14q30 -5 49 -15q17 18 61.5 17t57.5 -19q4 -2 4 -3q8 -4 9 -13q-5 -19 -7.5 -30.5t-6 -29.5t-4 -31.5t0.5 -29.5
t4 -31q9 -35 28 -58q13 -16 27 -19.5t36 -0.5zM259 91q54 59 71 180q-21 30 -61.5 36t-79.5 -8.5t-62 -39.5q-35 -38 -38.5 -88.5t28.5 -90.5q21 -26 47 -31t50 6.5t45 35.5zM142 466q-15 13 10 23t52 -1q38 -16 150 -79q15 -9 13 -18.5t-19 -16.5q-42 -15 -77 7
q-9 5 -32 19t-35.5 22t-30.5 20.5t-31 23.5z" />
    <glyph glyph-name="adieresis" unicode="&#xe4;" horiz-adv-x="577" 
d="M550 61q13 2 24 -5q5 -4 -1 -8q-36 -28 -107 -10q-50 13 -83 48q-36 -44 -85 -67q-44 -20 -97.5 -22.5t-103.5 18.5t-71 67q-32 67 4 133t106 95q71 29 155 14q30 -5 49 -15q17 18 61.5 17t57.5 -19q4 -2 4 -3q8 -4 9 -13q-5 -19 -7.5 -30.5t-6 -29.5t-4 -31.5t0.5 -29.5
t4 -31q9 -35 28 -58q13 -16 27 -19.5t36 -0.5zM259 91q54 59 71 180q-21 30 -61.5 36t-79.5 -8.5t-62 -39.5q-35 -38 -38.5 -88.5t28.5 -90.5q21 -26 47 -31t50 6.5t45 35.5zM165.5 405q-26.5 0 -45 8.5t-18.5 20t18.5 19.5t45 8t45 -8t18.5 -19.5t-18.5 -20t-45 -8.5z
M334 405q-17 0 -32 4t-23 10.5t-8 13.5q0 12 18.5 20t44.5 8q17 0 31.5 -3.5t23 -10t8.5 -14.5q0 -11 -18.5 -19.5t-44.5 -8.5z" />
    <glyph glyph-name="ae" unicode="&#xe6;" horiz-adv-x="726" 
d="M703 79q21 -16 15 -32.5t-22.5 -29t-34.5 -18.5q-85 -25 -160 -7q-75 19 -98 75q-6 16 -8 33q-39 -54 -97 -81q-44 -20 -97.5 -22.5t-103.5 18.5t-71 67q-32 67 4 133t106 95q71 29 155 14q30 -5 49 -15q12 13 43 16t56 -5t23 -24l-1 -5q50 50 122 48q57 -2 85.5 -46.5
t-1.5 -96.5q-23 -37 -65 -53.5t-90 -13.5q3 -38 21 -65q20 -28 59 -30q28 -1 41 5q9 4 13.5 9.5t9 14.5t6.5 14q5 7 19.5 7.5t21.5 -5.5zM259 91q54 59 71 180q-16 22 -44 31.5t-57 5t-57 -17t-45 -31.5q-35 -38 -38.5 -88.5t28.5 -90.5q21 -26 47 -31t50 6.5t45 35.5z
M529 244q-17 -53 -18 -96q48 4 81.5 26t35.5 67q1 23 -14 49.5t-38 19.5q-28 -9 -47 -66z" />
    <glyph glyph-name="ccedilla" unicode="&#xe7;" horiz-adv-x="461" 
d="M415 64q7 10 32 6q13 -3 13 -9q-1 -1 -1 -2q-45 -76 -182 -80q0 -2 -1 -6q-6 -17 -17.5 -30t-27 -21t-33.5 -11q-27 -4 -58.5 1.5t-35.5 28.5q-1 8 15.5 9.5t20.5 -0.5q4 -1 9.5 -3t8 -2.5t6 -0.5t6.5 1.5t7 5.5t7.5 10t6.5 12.5t5 10.5h-1q-80 11 -134.5 71t-46.5 140
q8 78 71.5 119.5t143.5 33.5q91 -9 117 -68q13 -32 5 -60.5t-34 -49.5q-6 -6 -26.5 -5.5t-20.5 11.5q-2 50 -17 76q-11 21 -27 32q-7 5 -15 8q-2 1 -9 2q-8 -4 -14 -9q-16 -11 -29 -30q-23 -34 -23 -81q-1 -49 21.5 -94.5t64.5 -60.5q47 -20 104.5 -8t88.5 53z" />
    <glyph glyph-name="egrave" unicode="&#xe8;" horiz-adv-x="347" 
d="M323 79q21 -16 15.5 -32.5t-22 -29t-34.5 -18.5q-85 -25 -161 -7q-75 19 -97 75q-21 54 3 129q21 66 66 105.5t110 37.5q58 -2 86.5 -46.5t-1.5 -96.5q-23 -37 -65.5 -53.5t-90.5 -13.5q3 -38 22 -65q20 -28 58 -30q29 -1 42 5q9 4 13.5 9.5t8.5 14.5t7 14q5 7 19.5 7.5
t20.5 -5.5zM150 244q-17 -53 -18 -96q48 4 81.5 26t35.5 67q1 23 -14 49.5t-38 19.5q-28 -9 -47 -66zM210 397q-42 -15 -77 6q-9 6 -32 20t-35.5 21.5t-30 20t-31.5 24.5q-15 13 10 22.5t52 -1.5q38 -16 150 -78q15 -10 13 -19.5t-19 -15.5z" />
    <glyph glyph-name="eacute" unicode="&#xe9;" horiz-adv-x="346" 
d="M323 79q21 -16 15 -32.5t-22.5 -29t-34.5 -18.5q-85 -25 -161 -7q-74 19 -97 75q-21 54 3 129q21 66 66 105.5t111 37.5q57 -2 85.5 -46.5t-1.5 -96.5q-23 -37 -65 -53.5t-90 -13.5q3 -38 21 -65q20 -28 59 -30q28 -1 41 5q9 4 13.5 9.5t8.5 14.5t7 14q5 7 19.5 7.5
t21.5 -5.5zM149 244q-17 -53 -18 -96q48 4 81.5 26t35.5 67q1 14 -5 31t-18.5 29.5t-28.5 8.5q-28 -9 -47 -66zM117 398q-15 -5 -42 -1q-20 4 -13 15q13 21 55 49q49 33 71 48q29 19 68 8q5 -2 10.5 -5t10 -7t4 -9t-6.5 -9q-8 -5 -25 -16.5t-26 -17t-25 -15.5t-27 -16
t-26 -12.5t-28 -11.5z" />
    <glyph glyph-name="igrave" unicode="&#xec;" horiz-adv-x="168" 
d="M134 209q4 -14 5 -29t1 -37t1 -30q0 -14 6.5 -43t6.5 -43q1 -22 -51 -26q-47 -3 -65 19q-9 11 -14 24t-5 33t0.5 28.5t4.5 34t4 27.5q7 54 6 79q0 7 -1.5 14t-4.5 16t-4 13t4 6t9 2q39 5 63.5 -21t33.5 -67zM173 422q15 -10 13 -19.5t-19 -15.5q-42 -15 -77 6
q-9 6 -32 20t-35.5 21.5t-30 20t-31.5 24.5q-15 13 10 22.5t52 -1.5q38 -16 150 -78z" />
    <glyph glyph-name="ntilde" unicode="&#xf1;" horiz-adv-x="387" 
d="M375 24q6 -19 -17.5 -27t-52.5 -5t-39 12q-24 23 -32.5 54.5t-4.5 57t11 64t8 59.5q2 39 -16 61q-20 23 -51 -21q-9 -13 -16 -28.5t-14.5 -38.5t-10.5 -31q1 -13 1.5 -37t0.5 -31q1 -14 7 -43t6 -43q1 -22 -51 -26q-47 -3 -65 19q-9 11 -14 24t-5 33t0.5 28.5t4.5 34
t4 27.5q7 54 7 79q0 7 -2 14t-5 16t-4 13q0 3 3 4.5t5.5 2.5t5.5 1q61 7 88 -61q2 5 2 6q17 52 36 71q21 20 53.5 23t58.5 -9q38 -16 57 -52t19 -81q0 -9 -3.5 -44.5t-0.5 -53.5q1 -12 6 -24t11 -25t9 -23zM71 404q2 -6 -5 -9.5t-15.5 -3t-13.5 1.5q-18 6 -28 18t-1 29
t33.5 22t49.5 2q24 -4 54 -20q1 0 3.5 -1l5 -2t4.5 -1l7 7q28 39 84 17q19 -7 13 -21q-14 -29 -46 -42t-67 -9q-31 2 -64 23q-2 1 -9 6q-7 -13 -5 -17z" />
    <glyph glyph-name="ograve" unicode="&#xf2;" horiz-adv-x="357" 
d="M339 237q5 -32 1 -68.5t-13 -68.5t-31.5 -59t-55.5 -42q-34 -15 -70.5 -14.5t-68 14t-54.5 41t-30 63.5q-12 70 21.5 134t99.5 85q70 23 120 -6q35 -20 39 -53q40 -4 42 -26zM222 237q-2 7 6.5 13t23.5 10q-19 40 -48 42t-54 -47q-17 -34 -20 -78t9 -80q1 -5 3.5 -10
l4 -8t5 -7.5t5 -7t6 -7l6 -6t6.5 -7t7 -6.5q7 3 12 6q18 11 29 31q12 21 13.5 53.5t-2.5 53.5t-12 55z" />
    <glyph glyph-name="divide" unicode="&#xf7;" horiz-adv-x="310" 
d="M103 334q-17 7 -18 19q0 6 5 10q5 6 13 9q9 4 19 5q12 3 24 2q24 0 43 -7q16 -7 18 -19q-1 -7 -6 -11q-4 -6 -12 -8q-10 -4 -20 -6q-11 -2 -23 -2q-24 0 -43 8zM299 256q8 -7 0 -13q-12 -9 -30.5 -10.5t-33.5 -0.5q-8 1 -77 3q-33 2 -84 4q-2 0 -10 0.5t-11 1t-10 1
t-11 1.5t-9.5 3t-10.5 4q-6 3 -6 7.5t6 7.5q15 5 35.5 7.5t35.5 2t40 -1.5t35 -2q69 -1 83 -2h11.5t13.5 -0.5t11.5 -1.5t12.5 -3.5t9 -7.5zM192 186q7 -3 11 -10q1 -3 3 -7q-1 -7 -6 -11q-5 -6 -13 -9q-4 -2 -13 -4q-15 -4 -32 -4q-31 0 -50 11q-7 3 -11 10q-4 5 -2 11
t8 10q10 7 23 10q2 0 7 1t8 2q7 1 17 1h1h1h2t2.5 -0.5t3.5 -0.5h7q19 -2 33 -10zM142 197h1h-1v0z" />
    <glyph glyph-name="oslash" unicode="&#xf8;" horiz-adv-x="367" 
d="M376 408q9 -7 9 -16q0 -7 -12 -13q-1 -1 -2 -1q-30 -48 -74 -110q1 -2 1 -5q40 -4 42 -26q5 -32 1.5 -68.5t-13 -68.5t-32 -59t-55.5 -42q-69 -30 -137 -1q-34 -45 -62 -66q-5 -5 -27 -5t-20 10q1 6 2.5 11.5t3 10.5t4.5 11.5t4.5 10t5.5 11t5.5 10t6.5 10.5t6.5 10
t7 10.5t5.5 9.5q-21 27 -27 61q-13 70 20.5 134t99.5 85q54 17 97 4q31 44 56 78q11 15 40.5 15.5t43.5 -11.5zM152 254q-19 -37 -21 -85q11 16 27.5 41t31.5 47.5t28 41.5q-6 2 -13 3q-28 2 -53 -48zM225 75q21 37 10 105q-10 -14 -16 -23q-7 -10 -29 -41.5t-34 -48.5
q6 -8 27 -29q7 3 13 6q17 11 29 31z" />
    <glyph glyph-name="ugrave" unicode="&#xf9;" horiz-adv-x="442" 
d="M426 12q15 -12 -16 -18q-13 -3 -19 -2q-40 8 -57 31.5t-29 68.5q-10 -22 -23 -37q-24 -31 -60.5 -44t-77.5 -9q-45 6 -77 34.5t-42 72.5q-9 37 0 108.5t2 106.5q-3 14 22 22q41 14 78 0q20 -8 23 -22q1 -22 2.5 -31.5t-2 -30.5t-5.5 -30.5t-7.5 -30.5t-7.5 -31
q-19 -86 13 -128q13 -17 31.5 -17t35 12.5t29.5 28.5t21 31q12 25 20 70q1 7 2.5 22.5t3.5 23.5q-3 45 -1 96q1 18 31 24.5t59.5 -1t28.5 -23.5q-6 -78 -1 -161q3 -59 6 -80q0 -1 0.5 -8.5t1 -11t2 -10t3 -10.5t4 -8.5t6.5 -7.5zM90 465q-14 13 10.5 23t51.5 -1
q38 -16 150 -79q16 -9 14 -18.5t-19 -16.5q-42 -15 -78 7q-9 5 -32 19t-35 22t-30 20.5t-32 23.5z" />
    <glyph glyph-name="OE" unicode="&#x152;" horiz-adv-x="921" 
d="M758 433q94 81 68 156q-8 22 -23.5 36.5t-35.5 8.5q-35 -10 -72 -48q-32 -32 -50.5 -75.5t-18.5 -89.5q-1 -54 24 -91q3 -4 8 -8l10 -8t8 -7q33 22 85 8q10 -2 18.5 -7.5t12.5 -14t-8 -16.5q-21 -16 -48 -24q-66 -28 -99 -102.5t-1 -137.5q14 -28 37 -36.5t47 -1.5t48 25
q54 40 80 130q3 8 20.5 8.5t18.5 -8.5q6 -48 -22.5 -93.5t-73.5 -72.5q-50 -29 -112.5 -31t-112.5 29q-58 38 -61 116q-13 -18 -29 -33q-44 -44 -105 -62.5t-125 -10.5q-43 6 -80 26t-63.5 49.5t-46.5 67.5t-30.5 79.5t-13.5 86t2.5 87t20 82t36 71.5t53 55t69.5 32
q14 22 35 37q44 30 102.5 32t106.5 -21q72 -31 112 -103q24 37 58 64q27 22 64.5 38t77 22.5t78 -4.5t62.5 -41q20 -24 23.5 -58.5t-9.5 -63.5q-27 -63 -113 -91q-13 -4 -30 3q-7 5 -2 11zM456 283q14 91 -2 181t-72 145q-21 20 -43.5 29t-47.5 4t-45 -28q20 0 40 -2
q11 -2 21 -5t19.5 -11t4.5 -19q-8 -15 -33 -19t-46 -1l1 -1l-9 -2q-9 -5 -16 -11q-3 -3 -7 -6q2 -29 16 -56q3 -6 -7 -8q-15 -2 -22 2q-11 10 -18 22q-17 -28 -30 -65q-30 -86 -17 -185q12 -84 55 -149q51 -76 94 -71q59 8 110 97q41 69 54 159zM577 244q10 9 20 17
q-8 3 -15 7q-2 -12 -5 -24z" />
    <glyph glyph-name="oe" unicode="&#x153;" horiz-adv-x="599" 
d="M576 79q21 -16 15 -32.5t-22.5 -29t-34.5 -18.5q-85 -25 -160 -7q-53 13 -81 47q-22 -26 -53 -40q-34 -15 -70.5 -14.5t-68 14t-54.5 41t-30 63.5q-12 70 21.5 134t99.5 85q70 23 120 -6q35 -20 39 -53q7 -1 13 -2q54 81 146 78q57 -2 85.5 -46.5t-1.5 -96.5
q-22 -37 -64.5 -53.5t-90.5 -13.5q3 -38 22 -65q20 -28 58 -30q29 -1 42 5q8 4 12.5 9.5t9 14.5t7.5 14q5 7 19.5 7.5t20.5 -5.5zM222 237q-2 7 6.5 13t23.5 10q-19 40 -48 42t-54 -47q-17 -34 -20 -78t9 -80q1 -5 3.5 -10l4 -8t5 -7.5t5 -7t6 -7l6 -6t6.5 -7t7 -6.5
q7 3 12 6q18 11 29 31q12 21 13.5 53.5t-2.5 53.5t-12 55zM403 244q-18 -53 -19 -96q49 4 82.5 26t34.5 67q1 23 -14 49.5t-38 19.5q-28 -9 -46 -66z" />
    <glyph glyph-name="perthousand" unicode="&#x2030;" horiz-adv-x="837" 
d="M429 429q-21 -43 -75 -149q-13 -26 -39.5 -78t-39.5 -77q-12 -23 -35 -69q-2 -5 -7.5 -16l-8.5 -17t-8.5 -14.5t-11 -15t-13.5 -11.5q-10 -9 -34 -12.5t-45.5 2.5t-25.5 22q-1 9 1.5 20t7 19t11.5 20.5t10 17.5q12 25 38 74q12 25 37.5 75t38.5 75q54 105 80 155
q18 34 28 51.5t29 43.5t39 44q9 10 41.5 9t33.5 -18q0 -15 -2.5 -30.5t-9 -33t-11.5 -28t-15.5 -31.5t-13.5 -28zM492 205q33 -17 52 -54.5t1 -69.5q-11 -20 -33 -33t-47 -18.5t-50 -5t-46 5.5q-14 4 -24 12t-5 19q10 21 60 20h7q1 1 2 1q3 5 11.5 13t12.5 14q22 37 6 64
q-11 17 -24 12t-22 -23q-8 -15 -6 -36t15 -33q6 -8 -8 -9t-19 2q-30 17 -35.5 50t19.5 58q24 22 64 24t69 -13zM725 205q33 -17 52 -54.5t1 -69.5q-15 -26 -47.5 -41t-65.5 -15.5t-63 5.5q-14 4 -24 12t-5 19q10 21 60 20h7q1 1 2 1q3 5 12 13t12 14q22 37 6 64
q-11 17 -24 12t-22 -23q-8 -15 -5.5 -36t14.5 -33q7 -8 -8 -9q-13 -1 -19 2q-30 17 -35.5 50t20.5 58q24 22 64 24t68 -13zM217 401q-15 -26 -48 -41t-66 -15.5t-63 5.5q-14 4 -24 11.5t-4 19.5q10 21 60 20h7q1 0 1 1q3 4 12 12.5t12 13.5q23 38 7 65q-12 16 -25 11.5
t-21 -22.5q-9 -15 -6.5 -36t14.5 -34q7 -7 -8 -9q-13 -1 -18 2q-30 18 -36 50.5t20 57.5q24 22 64 24.5t68 -13.5q34 -16 52.5 -53.5t1.5 -69.5z" />
    <glyph glyph-name="Euro" unicode="&#x20ac;" horiz-adv-x="480" 
d="M457 76q8 -11 6 -20.5t-13 -18t-24.5 -16t-29.5 -13t-28 -9t-19 -4.5q-94 -16 -168 23q-56 30 -87.5 84t-39.5 120q-9 1 -13 2q-30 5 -33 15v1q-2 4 0 9q4 11 33 15q1 0 11 1v2v1v14h-1q-10 1 -25 6t-9 14q11 15 38 23q15 166 109 226q40 25 88.5 32.5t96 -9t72.5 -56.5
q36 -61 13 -139.5t-84 -112.5q-4 -3 -16.5 -2.5t-14.5 5.5q-3 4 -1.5 15t2.5 15.5t4.5 15.5t4.5 15q15 49 17 67q9 70 -27 116q-21 24 -36.5 23t-37.5 -25q-35 -37 -51 -123q-6 -29 -9 -53q7 -1 13 -1q7 -1 14.5 -3t16 -6t12.5 -10t0 -14q-11 -22 -60 -20q-1 -6 -1 -11h13
q10 0 22.5 -1.5t25.5 -8.5t13 -17q0 -15 -21 -21.5t-40 -5.5h-3.5h-3.5h-3q8 -64 41 -110q38 -56 74 -58q10 -1 25 8l18 12t21.5 13t21.5 8q14 6 38.5 3t34.5 -16z" />
    </font>
</defs>
</svg>
